<svg id="Stockholm_icons_Home_Key" data-name="Stockholm icons / Home / Key" xmlns="http://www.w3.org/2000/svg" width="37.808" height="37.808" viewBox="0 0 37.808 37.808">
  <g id="Group_42" data-name="Group 42" transform="translate(4.726 4.726)">
    <g id="call" transform="translate(29.931 29.932) rotate(180)">
      <path id="Path" d="M1.313,16.41A14.945,14.945,0,0,0,6,15.662a1.317,1.317,0,0,1,1.332.322l2.888,2.895a19.771,19.771,0,0,0,8.651-8.645l-2.888-2.9A1.317,1.317,0,0,1,15.662,6a14.945,14.945,0,0,0,.748-4.687A1.308,1.308,0,0,1,17.723,0h4.595A1.312,1.312,0,0,1,23.63,1.313,22.316,22.316,0,0,1,1.313,23.63,1.308,1.308,0,0,1,0,22.317V17.723A1.308,1.308,0,0,1,1.313,16.41Z" transform="translate(23.63 23.63) rotate(180)" fill="#a1afc3"/>
    </g>
    <path id="Shape" d="M.074,18.921v0A17.329,17.329,0,0,1,17.323,0C17.86,0,18.4.025,18.94.075L18.65,3.213c-.435-.04-.881-.062-1.328-.062A14.176,14.176,0,0,0,3.211,18.633L.075,18.92Zm6.277-.561v0A11.027,11.027,0,0,1,17.324,6.3c.354,0,.712.017,1.065.051l-.3,3.136c-.248-.024-.5-.037-.763-.037a7.876,7.876,0,0,0-7.839,8.613l-3.135.293Z" transform="translate(0 0)" fill="#a1afc3"/>
  </g>
</svg>
