<svg xmlns="http://www.w3.org/2000/svg" xmlns:xlink="http://www.w3.org/1999/xlink" width="688" height="539" viewBox="0 0 688 539">
  <defs>
    <clipPath id="clip-path">
      <path id="Path_7" data-name="Path 7" d="M552.667,71.093V191.229a137.461,137.461,0,0,0-89.326,0V71.093a106.98,106.98,0,0,1,89.326,0Z" fill="none"/>
    </clipPath>
    <clipPath id="clip-path-2">
      <rect id="Rectangle_19" data-name="Rectangle 19" width="493.561" height="345.145" transform="translate(122.151 72.885)" fill="none"/>
    </clipPath>
    <clipPath id="clip-path-3">
      <path id="Path_22" data-name="Path 22" d="M307.025,291.087l-41.834,22.124-32.674-95.965-15.751,2.071,17.719,112.337a21.7,21.7,0,0,0,8.73,14.211h0a21.7,21.7,0,0,0,21.959,2.037l10.193-4.805L319.7,321.6Z" fill="none"/>
    </clipPath>
    <clipPath id="clip-path-4">
      <path id="Path_28" data-name="Path 28" d="M318.714,279.115,272.863,308.03a60.992,60.992,0,0,0,5.231,18.957c5.856,12.7,13.989,14.766,18.918,18.39,19.6-7.314,38.915-18.751,58.512-26.065Z" fill="none"/>
    </clipPath>
    <clipPath id="clip-path-5">
      <path id="Path_33" data-name="Path 33" d="M426.564,291.087,468.4,313.211l32.674-95.965,15.751,2.071L499.1,331.654a21.7,21.7,0,0,1-8.73,14.211h0a21.7,21.7,0,0,1-21.959,2.037L458.222,343.1l-44.331-21.5Z" fill="none"/>
    </clipPath>
    <clipPath id="clip-path-6">
      <path id="Path_37" data-name="Path 37" d="M414.875,279.115l45.851,28.915a61.015,61.015,0,0,1-5.23,18.957c-5.857,12.7-13.99,14.766-18.919,18.39-19.6-7.314-38.915-18.751-58.512-26.065Z" fill="none"/>
    </clipPath>
    <clipPath id="clip-path-7">
      <path id="Path_50" data-name="Path 50" d="M375.538,226.006c0,4.219-2.655,7.64-5.931,7.64s-5.932-3.421-5.932-7.64,2.656-4.589,5.932-4.589S375.538,221.787,375.538,226.006Z" fill="none"/>
    </clipPath>
    <clipPath id="clip-path-8">
      <path id="Path_56" data-name="Path 56" d="M425.066,349.33c-.439-28.517-4.839-29.837-8.716-67.925-.842-8.268-40.211-3.6-40.211-3.6h-9.624s-6.433.1-8.574,0c-17.314-.824-31.567-1.915-39.227,1.311-14.223,5.991-9.261,41.7-9.7,70.215-.182,11.8-.837,115.155-4.768,119.611H429.834C425.9,464.485,425.248,361.133,425.066,349.33Z" fill="none"/>
    </clipPath>
  </defs>
  <g id="Group_54510" data-name="Group 54510" transform="translate(-226 -308)">
    <g id="Memphis" transform="translate(740.014 308)" opacity="0.2">
      <circle id="Ellipse_1" data-name="Ellipse 1" cx="2.5" cy="2.5" r="2.5" transform="translate(168.987)" fill="#05150f"/>
      <ellipse id="Ellipse_1-2" data-name="Ellipse 1" cx="3" cy="2.5" rx="3" ry="2.5" transform="translate(149.987)" fill="#05150f"/>
      <circle id="Ellipse_1-3" data-name="Ellipse 1" cx="2.5" cy="2.5" r="2.5" transform="translate(132.987)" fill="#05150f"/>
      <ellipse id="Ellipse_1-4" data-name="Ellipse 1" cx="3" cy="2.5" rx="3" ry="2.5" transform="translate(112.987)" fill="#05150f"/>
      <circle id="Ellipse_1-5" data-name="Ellipse 1" cx="2.5" cy="2.5" r="2.5" transform="translate(94.987)" fill="#05150f"/>
      <ellipse id="Ellipse_1-6" data-name="Ellipse 1" cx="3.5" cy="2.5" rx="3.5" ry="2.5" transform="translate(74.987)" fill="#05150f"/>
      <circle id="Ellipse_1-7" data-name="Ellipse 1" cx="2.5" cy="2.5" r="2.5" transform="translate(57.987)" fill="#05150f"/>
      <ellipse id="Ellipse_1-8" data-name="Ellipse 1" cx="3" cy="2.5" rx="3" ry="2.5" transform="translate(37.987)" fill="#05150f"/>
      <circle id="Ellipse_1-9" data-name="Ellipse 1" cx="2.5" cy="2.5" r="2.5" transform="translate(19.987)" fill="#05150f"/>
      <ellipse id="Ellipse_1-10" data-name="Ellipse 1" cx="3.5" cy="2.5" rx="3.5" ry="2.5" transform="translate(-0.013)" fill="#05150f"/>
      <circle id="Ellipse_1-11" data-name="Ellipse 1" cx="2.5" cy="2.5" r="2.5" transform="translate(168.987 20)" fill="#05150f"/>
      <ellipse id="Ellipse_1-12" data-name="Ellipse 1" cx="3" cy="2.5" rx="3" ry="2.5" transform="translate(149.987 20)" fill="#05150f"/>
      <circle id="Ellipse_1-13" data-name="Ellipse 1" cx="2.5" cy="2.5" r="2.5" transform="translate(132.987 20)" fill="#05150f"/>
      <ellipse id="Ellipse_1-14" data-name="Ellipse 1" cx="3" cy="2.5" rx="3" ry="2.5" transform="translate(112.987 20)" fill="#05150f"/>
      <circle id="Ellipse_1-15" data-name="Ellipse 1" cx="2.5" cy="2.5" r="2.5" transform="translate(94.987 20)" fill="#05150f"/>
      <ellipse id="Ellipse_1-16" data-name="Ellipse 1" cx="3.5" cy="2.5" rx="3.5" ry="2.5" transform="translate(74.987 20)" fill="#05150f"/>
      <circle id="Ellipse_1-17" data-name="Ellipse 1" cx="2.5" cy="2.5" r="2.5" transform="translate(57.987 20)" fill="#05150f"/>
      <ellipse id="Ellipse_1-18" data-name="Ellipse 1" cx="3" cy="2.5" rx="3" ry="2.5" transform="translate(37.987 20)" fill="#05150f"/>
      <circle id="Ellipse_1-19" data-name="Ellipse 1" cx="2.5" cy="2.5" r="2.5" transform="translate(19.987 20)" fill="#05150f"/>
      <ellipse id="Ellipse_1-20" data-name="Ellipse 1" cx="3.5" cy="2.5" rx="3.5" ry="2.5" transform="translate(-0.013 20)" fill="#05150f"/>
      <circle id="Ellipse_1-21" data-name="Ellipse 1" cx="2.5" cy="2.5" r="2.5" transform="translate(168.987 40)" fill="#05150f"/>
      <ellipse id="Ellipse_1-22" data-name="Ellipse 1" cx="3" cy="2.5" rx="3" ry="2.5" transform="translate(149.987 40)" fill="#05150f"/>
      <circle id="Ellipse_1-23" data-name="Ellipse 1" cx="2.5" cy="2.5" r="2.5" transform="translate(132.987 40)" fill="#05150f"/>
      <ellipse id="Ellipse_1-24" data-name="Ellipse 1" cx="3" cy="2.5" rx="3" ry="2.5" transform="translate(112.987 40)" fill="#05150f"/>
      <circle id="Ellipse_1-25" data-name="Ellipse 1" cx="2.5" cy="2.5" r="2.5" transform="translate(94.987 40)" fill="#05150f"/>
      <ellipse id="Ellipse_1-26" data-name="Ellipse 1" cx="3.5" cy="2.5" rx="3.5" ry="2.5" transform="translate(74.987 40)" fill="#05150f"/>
      <circle id="Ellipse_1-27" data-name="Ellipse 1" cx="2.5" cy="2.5" r="2.5" transform="translate(57.987 40)" fill="#05150f"/>
      <ellipse id="Ellipse_1-28" data-name="Ellipse 1" cx="3" cy="2.5" rx="3" ry="2.5" transform="translate(37.987 40)" fill="#05150f"/>
      <circle id="Ellipse_1-29" data-name="Ellipse 1" cx="2.5" cy="2.5" r="2.5" transform="translate(19.987 40)" fill="#05150f"/>
      <ellipse id="Ellipse_1-30" data-name="Ellipse 1" cx="3.5" cy="2.5" rx="3.5" ry="2.5" transform="translate(-0.013 40)" fill="#05150f"/>
      <ellipse id="Ellipse_1-31" data-name="Ellipse 1" cx="2.5" cy="3" rx="2.5" ry="3" transform="translate(168.987 59)" fill="#05150f"/>
      <circle id="Ellipse_1-32" data-name="Ellipse 1" cx="3" cy="3" r="3" transform="translate(149.987 59)" fill="#05150f"/>
      <ellipse id="Ellipse_1-33" data-name="Ellipse 1" cx="2.5" cy="3" rx="2.5" ry="3" transform="translate(132.987 59)" fill="#05150f"/>
      <circle id="Ellipse_1-34" data-name="Ellipse 1" cx="3" cy="3" r="3" transform="translate(112.987 59)" fill="#05150f"/>
      <ellipse id="Ellipse_1-35" data-name="Ellipse 1" cx="2.5" cy="3" rx="2.5" ry="3" transform="translate(94.987 59)" fill="#05150f"/>
      <ellipse id="Ellipse_1-36" data-name="Ellipse 1" cx="3.5" cy="3" rx="3.5" ry="3" transform="translate(74.987 59)" fill="#05150f"/>
      <ellipse id="Ellipse_1-37" data-name="Ellipse 1" cx="2.5" cy="3" rx="2.5" ry="3" transform="translate(57.987 59)" fill="#05150f"/>
      <circle id="Ellipse_1-38" data-name="Ellipse 1" cx="3" cy="3" r="3" transform="translate(37.987 59)" fill="#05150f"/>
      <ellipse id="Ellipse_1-39" data-name="Ellipse 1" cx="2.5" cy="3" rx="2.5" ry="3" transform="translate(19.987 59)" fill="#05150f"/>
      <ellipse id="Ellipse_1-40" data-name="Ellipse 1" cx="3.5" cy="3" rx="3.5" ry="3" transform="translate(-0.013 59)" fill="#05150f"/>
      <circle id="Ellipse_1-41" data-name="Ellipse 1" cx="2.5" cy="2.5" r="2.5" transform="translate(168.987 78)" fill="#05150f"/>
      <ellipse id="Ellipse_1-42" data-name="Ellipse 1" cx="3" cy="2.5" rx="3" ry="2.5" transform="translate(149.987 78)" fill="#05150f"/>
      <circle id="Ellipse_1-43" data-name="Ellipse 1" cx="2.5" cy="2.5" r="2.5" transform="translate(132.987 78)" fill="#05150f"/>
      <ellipse id="Ellipse_1-44" data-name="Ellipse 1" cx="3" cy="2.5" rx="3" ry="2.5" transform="translate(112.987 78)" fill="#05150f"/>
      <circle id="Ellipse_1-45" data-name="Ellipse 1" cx="2.5" cy="2.5" r="2.5" transform="translate(94.987 78)" fill="#05150f"/>
      <ellipse id="Ellipse_1-46" data-name="Ellipse 1" cx="3.5" cy="2.5" rx="3.5" ry="2.5" transform="translate(74.987 78)" fill="#05150f"/>
      <circle id="Ellipse_1-47" data-name="Ellipse 1" cx="2.5" cy="2.5" r="2.5" transform="translate(57.987 78)" fill="#05150f"/>
      <ellipse id="Ellipse_1-48" data-name="Ellipse 1" cx="3" cy="2.5" rx="3" ry="2.5" transform="translate(37.987 78)" fill="#05150f"/>
      <circle id="Ellipse_1-49" data-name="Ellipse 1" cx="2.5" cy="2.5" r="2.5" transform="translate(19.987 78)" fill="#05150f"/>
      <ellipse id="Ellipse_1-50" data-name="Ellipse 1" cx="3.5" cy="2.5" rx="3.5" ry="2.5" transform="translate(-0.013 78)" fill="#05150f"/>
      <circle id="Ellipse_1-51" data-name="Ellipse 1" cx="2.5" cy="2.5" r="2.5" transform="translate(168.987 98)" fill="#05150f"/>
      <ellipse id="Ellipse_1-52" data-name="Ellipse 1" cx="3" cy="2.5" rx="3" ry="2.5" transform="translate(149.987 98)" fill="#05150f"/>
      <circle id="Ellipse_1-53" data-name="Ellipse 1" cx="2.5" cy="2.5" r="2.5" transform="translate(132.987 98)" fill="#05150f"/>
      <ellipse id="Ellipse_1-54" data-name="Ellipse 1" cx="3" cy="2.5" rx="3" ry="2.5" transform="translate(112.987 98)" fill="#05150f"/>
      <circle id="Ellipse_1-55" data-name="Ellipse 1" cx="2.5" cy="2.5" r="2.5" transform="translate(94.987 98)" fill="#05150f"/>
      <ellipse id="Ellipse_1-56" data-name="Ellipse 1" cx="3.5" cy="2.5" rx="3.5" ry="2.5" transform="translate(74.987 98)" fill="#05150f"/>
      <circle id="Ellipse_1-57" data-name="Ellipse 1" cx="2.5" cy="2.5" r="2.5" transform="translate(57.987 98)" fill="#05150f"/>
      <ellipse id="Ellipse_1-58" data-name="Ellipse 1" cx="3" cy="2.5" rx="3" ry="2.5" transform="translate(37.987 98)" fill="#05150f"/>
      <circle id="Ellipse_1-59" data-name="Ellipse 1" cx="2.5" cy="2.5" r="2.5" transform="translate(19.987 98)" fill="#05150f"/>
      <ellipse id="Ellipse_1-60" data-name="Ellipse 1" cx="3.5" cy="2.5" rx="3.5" ry="2.5" transform="translate(-0.013 98)" fill="#05150f"/>
      <circle id="Ellipse_1-61" data-name="Ellipse 1" cx="2.5" cy="2.5" r="2.5" transform="translate(168.987 118)" fill="#05150f"/>
      <ellipse id="Ellipse_1-62" data-name="Ellipse 1" cx="3" cy="2.5" rx="3" ry="2.5" transform="translate(149.987 118)" fill="#05150f"/>
      <circle id="Ellipse_1-63" data-name="Ellipse 1" cx="2.5" cy="2.5" r="2.5" transform="translate(132.987 118)" fill="#05150f"/>
      <ellipse id="Ellipse_1-64" data-name="Ellipse 1" cx="3" cy="2.5" rx="3" ry="2.5" transform="translate(112.987 118)" fill="#05150f"/>
      <circle id="Ellipse_1-65" data-name="Ellipse 1" cx="2.5" cy="2.5" r="2.5" transform="translate(94.987 118)" fill="#05150f"/>
      <ellipse id="Ellipse_1-66" data-name="Ellipse 1" cx="3.5" cy="2.5" rx="3.5" ry="2.5" transform="translate(74.987 118)" fill="#05150f"/>
      <circle id="Ellipse_1-67" data-name="Ellipse 1" cx="2.5" cy="2.5" r="2.5" transform="translate(57.987 118)" fill="#05150f"/>
      <ellipse id="Ellipse_1-68" data-name="Ellipse 1" cx="3" cy="2.5" rx="3" ry="2.5" transform="translate(37.987 118)" fill="#05150f"/>
      <circle id="Ellipse_1-69" data-name="Ellipse 1" cx="2.5" cy="2.5" r="2.5" transform="translate(19.987 118)" fill="#05150f"/>
      <ellipse id="Ellipse_1-70" data-name="Ellipse 1" cx="3.5" cy="2.5" rx="3.5" ry="2.5" transform="translate(-0.013 118)" fill="#05150f"/>
    </g>
    <g id="Memphis-2" data-name="Memphis" transform="translate(226.014 724)" opacity="0.2">
      <circle id="Ellipse_1-71" data-name="Ellipse 1" cx="2.5" cy="2.5" r="2.5" transform="translate(168.987)" fill="#05150f"/>
      <ellipse id="Ellipse_1-72" data-name="Ellipse 1" cx="3" cy="2.5" rx="3" ry="2.5" transform="translate(149.987)" fill="#05150f"/>
      <circle id="Ellipse_1-73" data-name="Ellipse 1" cx="2.5" cy="2.5" r="2.5" transform="translate(132.987)" fill="#05150f"/>
      <ellipse id="Ellipse_1-74" data-name="Ellipse 1" cx="3" cy="2.5" rx="3" ry="2.5" transform="translate(112.987)" fill="#05150f"/>
      <circle id="Ellipse_1-75" data-name="Ellipse 1" cx="2.5" cy="2.5" r="2.5" transform="translate(94.987)" fill="#05150f"/>
      <ellipse id="Ellipse_1-76" data-name="Ellipse 1" cx="3.5" cy="2.5" rx="3.5" ry="2.5" transform="translate(74.987)" fill="#05150f"/>
      <circle id="Ellipse_1-77" data-name="Ellipse 1" cx="2.5" cy="2.5" r="2.5" transform="translate(57.987)" fill="#05150f"/>
      <ellipse id="Ellipse_1-78" data-name="Ellipse 1" cx="3" cy="2.5" rx="3" ry="2.5" transform="translate(37.987)" fill="#05150f"/>
      <circle id="Ellipse_1-79" data-name="Ellipse 1" cx="2.5" cy="2.5" r="2.5" transform="translate(19.987)" fill="#05150f"/>
      <ellipse id="Ellipse_1-80" data-name="Ellipse 1" cx="3.5" cy="2.5" rx="3.5" ry="2.5" transform="translate(-0.013)" fill="#05150f"/>
      <circle id="Ellipse_1-81" data-name="Ellipse 1" cx="2.5" cy="2.5" r="2.5" transform="translate(168.987 20)" fill="#05150f"/>
      <ellipse id="Ellipse_1-82" data-name="Ellipse 1" cx="3" cy="2.5" rx="3" ry="2.5" transform="translate(149.987 20)" fill="#05150f"/>
      <circle id="Ellipse_1-83" data-name="Ellipse 1" cx="2.5" cy="2.5" r="2.5" transform="translate(132.987 20)" fill="#05150f"/>
      <ellipse id="Ellipse_1-84" data-name="Ellipse 1" cx="3" cy="2.5" rx="3" ry="2.5" transform="translate(112.987 20)" fill="#05150f"/>
      <circle id="Ellipse_1-85" data-name="Ellipse 1" cx="2.5" cy="2.5" r="2.5" transform="translate(94.987 20)" fill="#05150f"/>
      <ellipse id="Ellipse_1-86" data-name="Ellipse 1" cx="3.5" cy="2.5" rx="3.5" ry="2.5" transform="translate(74.987 20)" fill="#05150f"/>
      <circle id="Ellipse_1-87" data-name="Ellipse 1" cx="2.5" cy="2.5" r="2.5" transform="translate(57.987 20)" fill="#05150f"/>
      <ellipse id="Ellipse_1-88" data-name="Ellipse 1" cx="3" cy="2.5" rx="3" ry="2.5" transform="translate(37.987 20)" fill="#05150f"/>
      <circle id="Ellipse_1-89" data-name="Ellipse 1" cx="2.5" cy="2.5" r="2.5" transform="translate(19.987 20)" fill="#05150f"/>
      <ellipse id="Ellipse_1-90" data-name="Ellipse 1" cx="3.5" cy="2.5" rx="3.5" ry="2.5" transform="translate(-0.013 20)" fill="#05150f"/>
      <circle id="Ellipse_1-91" data-name="Ellipse 1" cx="2.5" cy="2.5" r="2.5" transform="translate(168.987 40)" fill="#05150f"/>
      <ellipse id="Ellipse_1-92" data-name="Ellipse 1" cx="3" cy="2.5" rx="3" ry="2.5" transform="translate(149.987 40)" fill="#05150f"/>
      <circle id="Ellipse_1-93" data-name="Ellipse 1" cx="2.5" cy="2.5" r="2.5" transform="translate(132.987 40)" fill="#05150f"/>
      <ellipse id="Ellipse_1-94" data-name="Ellipse 1" cx="3" cy="2.5" rx="3" ry="2.5" transform="translate(112.987 40)" fill="#05150f"/>
      <circle id="Ellipse_1-95" data-name="Ellipse 1" cx="2.5" cy="2.5" r="2.5" transform="translate(94.987 40)" fill="#05150f"/>
      <ellipse id="Ellipse_1-96" data-name="Ellipse 1" cx="3.5" cy="2.5" rx="3.5" ry="2.5" transform="translate(74.987 40)" fill="#05150f"/>
      <circle id="Ellipse_1-97" data-name="Ellipse 1" cx="2.5" cy="2.5" r="2.5" transform="translate(57.987 40)" fill="#05150f"/>
      <ellipse id="Ellipse_1-98" data-name="Ellipse 1" cx="3" cy="2.5" rx="3" ry="2.5" transform="translate(37.987 40)" fill="#05150f"/>
      <circle id="Ellipse_1-99" data-name="Ellipse 1" cx="2.5" cy="2.5" r="2.5" transform="translate(19.987 40)" fill="#05150f"/>
      <ellipse id="Ellipse_1-100" data-name="Ellipse 1" cx="3.5" cy="2.5" rx="3.5" ry="2.5" transform="translate(-0.013 40)" fill="#05150f"/>
      <ellipse id="Ellipse_1-101" data-name="Ellipse 1" cx="2.5" cy="3" rx="2.5" ry="3" transform="translate(168.987 59)" fill="#05150f"/>
      <circle id="Ellipse_1-102" data-name="Ellipse 1" cx="3" cy="3" r="3" transform="translate(149.987 59)" fill="#05150f"/>
      <ellipse id="Ellipse_1-103" data-name="Ellipse 1" cx="2.5" cy="3" rx="2.5" ry="3" transform="translate(132.987 59)" fill="#05150f"/>
      <circle id="Ellipse_1-104" data-name="Ellipse 1" cx="3" cy="3" r="3" transform="translate(112.987 59)" fill="#05150f"/>
      <ellipse id="Ellipse_1-105" data-name="Ellipse 1" cx="2.5" cy="3" rx="2.5" ry="3" transform="translate(94.987 59)" fill="#05150f"/>
      <ellipse id="Ellipse_1-106" data-name="Ellipse 1" cx="3.5" cy="3" rx="3.5" ry="3" transform="translate(74.987 59)" fill="#05150f"/>
      <ellipse id="Ellipse_1-107" data-name="Ellipse 1" cx="2.5" cy="3" rx="2.5" ry="3" transform="translate(57.987 59)" fill="#05150f"/>
      <circle id="Ellipse_1-108" data-name="Ellipse 1" cx="3" cy="3" r="3" transform="translate(37.987 59)" fill="#05150f"/>
      <ellipse id="Ellipse_1-109" data-name="Ellipse 1" cx="2.5" cy="3" rx="2.5" ry="3" transform="translate(19.987 59)" fill="#05150f"/>
      <ellipse id="Ellipse_1-110" data-name="Ellipse 1" cx="3.5" cy="3" rx="3.5" ry="3" transform="translate(-0.013 59)" fill="#05150f"/>
      <circle id="Ellipse_1-111" data-name="Ellipse 1" cx="2.5" cy="2.5" r="2.5" transform="translate(168.987 78)" fill="#05150f"/>
      <ellipse id="Ellipse_1-112" data-name="Ellipse 1" cx="3" cy="2.5" rx="3" ry="2.5" transform="translate(149.987 78)" fill="#05150f"/>
      <circle id="Ellipse_1-113" data-name="Ellipse 1" cx="2.5" cy="2.5" r="2.5" transform="translate(132.987 78)" fill="#05150f"/>
      <ellipse id="Ellipse_1-114" data-name="Ellipse 1" cx="3" cy="2.5" rx="3" ry="2.5" transform="translate(112.987 78)" fill="#05150f"/>
      <circle id="Ellipse_1-115" data-name="Ellipse 1" cx="2.5" cy="2.5" r="2.5" transform="translate(94.987 78)" fill="#05150f"/>
      <ellipse id="Ellipse_1-116" data-name="Ellipse 1" cx="3.5" cy="2.5" rx="3.5" ry="2.5" transform="translate(74.987 78)" fill="#05150f"/>
      <circle id="Ellipse_1-117" data-name="Ellipse 1" cx="2.5" cy="2.5" r="2.5" transform="translate(57.987 78)" fill="#05150f"/>
      <ellipse id="Ellipse_1-118" data-name="Ellipse 1" cx="3" cy="2.5" rx="3" ry="2.5" transform="translate(37.987 78)" fill="#05150f"/>
      <circle id="Ellipse_1-119" data-name="Ellipse 1" cx="2.5" cy="2.5" r="2.5" transform="translate(19.987 78)" fill="#05150f"/>
      <ellipse id="Ellipse_1-120" data-name="Ellipse 1" cx="3.5" cy="2.5" rx="3.5" ry="2.5" transform="translate(-0.013 78)" fill="#05150f"/>
      <circle id="Ellipse_1-121" data-name="Ellipse 1" cx="2.5" cy="2.5" r="2.5" transform="translate(168.987 98)" fill="#05150f"/>
      <ellipse id="Ellipse_1-122" data-name="Ellipse 1" cx="3" cy="2.5" rx="3" ry="2.5" transform="translate(149.987 98)" fill="#05150f"/>
      <circle id="Ellipse_1-123" data-name="Ellipse 1" cx="2.5" cy="2.5" r="2.5" transform="translate(132.987 98)" fill="#05150f"/>
      <ellipse id="Ellipse_1-124" data-name="Ellipse 1" cx="3" cy="2.5" rx="3" ry="2.5" transform="translate(112.987 98)" fill="#05150f"/>
      <circle id="Ellipse_1-125" data-name="Ellipse 1" cx="2.5" cy="2.5" r="2.5" transform="translate(94.987 98)" fill="#05150f"/>
      <ellipse id="Ellipse_1-126" data-name="Ellipse 1" cx="3.5" cy="2.5" rx="3.5" ry="2.5" transform="translate(74.987 98)" fill="#05150f"/>
      <circle id="Ellipse_1-127" data-name="Ellipse 1" cx="2.5" cy="2.5" r="2.5" transform="translate(57.987 98)" fill="#05150f"/>
      <ellipse id="Ellipse_1-128" data-name="Ellipse 1" cx="3" cy="2.5" rx="3" ry="2.5" transform="translate(37.987 98)" fill="#05150f"/>
      <circle id="Ellipse_1-129" data-name="Ellipse 1" cx="2.5" cy="2.5" r="2.5" transform="translate(19.987 98)" fill="#05150f"/>
      <ellipse id="Ellipse_1-130" data-name="Ellipse 1" cx="3.5" cy="2.5" rx="3.5" ry="2.5" transform="translate(-0.013 98)" fill="#05150f"/>
      <circle id="Ellipse_1-131" data-name="Ellipse 1" cx="2.5" cy="2.5" r="2.5" transform="translate(168.987 118)" fill="#05150f"/>
      <ellipse id="Ellipse_1-132" data-name="Ellipse 1" cx="3" cy="2.5" rx="3" ry="2.5" transform="translate(149.987 118)" fill="#05150f"/>
      <circle id="Ellipse_1-133" data-name="Ellipse 1" cx="2.5" cy="2.5" r="2.5" transform="translate(132.987 118)" fill="#05150f"/>
      <ellipse id="Ellipse_1-134" data-name="Ellipse 1" cx="3" cy="2.5" rx="3" ry="2.5" transform="translate(112.987 118)" fill="#05150f"/>
      <circle id="Ellipse_1-135" data-name="Ellipse 1" cx="2.5" cy="2.5" r="2.5" transform="translate(94.987 118)" fill="#05150f"/>
      <ellipse id="Ellipse_1-136" data-name="Ellipse 1" cx="3.5" cy="2.5" rx="3.5" ry="2.5" transform="translate(74.987 118)" fill="#05150f"/>
      <circle id="Ellipse_1-137" data-name="Ellipse 1" cx="2.5" cy="2.5" r="2.5" transform="translate(57.987 118)" fill="#05150f"/>
      <ellipse id="Ellipse_1-138" data-name="Ellipse 1" cx="3" cy="2.5" rx="3" ry="2.5" transform="translate(37.987 118)" fill="#05150f"/>
      <circle id="Ellipse_1-139" data-name="Ellipse 1" cx="2.5" cy="2.5" r="2.5" transform="translate(19.987 118)" fill="#05150f"/>
      <ellipse id="Ellipse_1-140" data-name="Ellipse 1" cx="3.5" cy="2.5" rx="3.5" ry="2.5" transform="translate(-0.013 118)" fill="#05150f"/>
    </g>
    <g id="OBJECTS" transform="translate(205.741 320.027)">
      <g id="Group_41" data-name="Group 41">
        <path id="Path_1" data-name="Path 1" d="M686.01,374.283a312.744,312.744,0,0,1-13.5,91.19H73.59a312.743,312.743,0,0,1-13.5-91.19c0-172.84,140.12-312.96,312.96-312.96S686.01,201.443,686.01,374.283Z" fill="#eff3fe"/>
        <g id="Group_40" data-name="Group 40">
          <g id="Group_3" data-name="Group 3">
            <path id="Path_2" data-name="Path 2" d="M647.2,81.8a118.26,118.26,0,0,0-94.537,1.84A118.271,118.271,0,0,0,458.115,81.8a6.8,6.8,0,0,0-4.216,6.29V207.254a6.786,6.786,0,0,0,8.607,6.546,151.962,151.962,0,0,1,85.909,1.282,14.278,14.278,0,0,0,8.486.006,151.959,151.959,0,0,1,85.906-1.294,6.793,6.793,0,0,0,8.627-6.541V88.091A6.809,6.809,0,0,0,647.2,81.8Z" fill="#48466d"/>
            <path id="Path_3" data-name="Path 3" d="M595.465,74.808a107.284,107.284,0,0,0-42.8,9.753,106.98,106.98,0,0,0-89.326,0V191.229l3.895,6.834a6.822,6.822,0,0,0,7.58,3.247,137.381,137.381,0,0,1,74.652,2.333,10.619,10.619,0,0,0,6.411,0,137.371,137.371,0,0,1,74.622-2.333,6.832,6.832,0,0,0,7.6-3.243l3.9-6.834V84.561A107.426,107.426,0,0,0,595.465,74.808Z" fill="#46cdcf"/>
            <path id="Path_4" data-name="Path 4" d="M641.992,75.368V191.229a137.458,137.458,0,0,0-89.325,0V71.093a106.953,106.953,0,0,1,85.273-1.757A6.511,6.511,0,0,1,641.992,75.368Z" fill="#ccf2e7"/>
            <g id="Group_2" data-name="Group 2">
              <g id="Group_1" data-name="Group 1" clip-path="url(#clip-path)">
                <path id="Path_5" data-name="Path 5" d="M552.667,71.093V191.229a137.461,137.461,0,0,0-89.326,0V75.367a6.507,6.507,0,0,1,4.04-6.028,106.965,106.965,0,0,1,85.286,1.754Z" fill="#ccf2e7"/>
                <path id="Path_6" data-name="Path 6" d="M552.667,71.093V191.229H511.446Z" fill="#46cdcf"/>
              </g>
            </g>
          </g>
          <g id="Group_7" data-name="Group 7">
            <g id="Group_4" data-name="Group 4">
              <rect id="Rectangle_2" data-name="Rectangle 2" width="13.35" height="70.071" transform="translate(583.901 388.916) rotate(-161.978)" fill="#e23e57"/>
              <path id="Path_8" data-name="Path 8" d="M573.489,399.344l10.478-10.63-12.695-4.13Z" fill="#02243e"/>
              <path id="Path_9" data-name="Path 9" d="M602.3,310.782h0a6.676,6.676,0,0,1,4.283,8.413l-1.005,3.088-12.7-4.131,1.005-3.087A6.675,6.675,0,0,1,602.3,310.782Z" fill="#02243e"/>
            </g>
            <g id="Group_5" data-name="Group 5">
              <path id="Rectangle_3" data-name="Rectangle 3" d="M1.726,0h21.5a1.726,1.726,0,0,1,1.726,1.726V92a0,0,0,0,1,0,0H0a0,0,0,0,1,0,0V1.726A1.726,1.726,0,0,1,1.726,0Z" transform="translate(546 272.898)" fill="#46cdcf"/>
              <line id="Line_1" data-name="Line 1" x2="6.667" transform="translate(546 279.898)" fill="none" stroke="#02243e" stroke-miterlimit="10" stroke-width="1"/>
              <line id="Line_2" data-name="Line 2" x2="6.667" transform="translate(546 283.648)" fill="none" stroke="#02243e" stroke-miterlimit="10" stroke-width="1"/>
              <line id="Line_3" data-name="Line 3" x2="6.667" transform="translate(546 287.398)" fill="none" stroke="#02243e" stroke-miterlimit="10" stroke-width="1"/>
              <line id="Line_4" data-name="Line 4" x2="6.667" transform="translate(546 291.148)" fill="none" stroke="#02243e" stroke-miterlimit="10" stroke-width="1"/>
              <line id="Line_5" data-name="Line 5" x2="6.667" transform="translate(546 294.898)" fill="none" stroke="#02243e" stroke-miterlimit="10" stroke-width="1"/>
              <line id="Line_6" data-name="Line 6" x2="6.667" transform="translate(546 298.648)" fill="none" stroke="#02243e" stroke-miterlimit="10" stroke-width="1"/>
              <line id="Line_7" data-name="Line 7" x2="6.667" transform="translate(546 302.398)" fill="none" stroke="#02243e" stroke-miterlimit="10" stroke-width="1"/>
              <line id="Line_8" data-name="Line 8" x2="6.667" transform="translate(546 306.148)" fill="none" stroke="#02243e" stroke-miterlimit="10" stroke-width="1"/>
              <line id="Line_9" data-name="Line 9" x2="6.667" transform="translate(546 309.898)" fill="none" stroke="#02243e" stroke-miterlimit="10" stroke-width="1"/>
              <line id="Line_10" data-name="Line 10" x2="6.667" transform="translate(546 313.648)" fill="none" stroke="#02243e" stroke-miterlimit="10" stroke-width="1"/>
              <line id="Line_11" data-name="Line 11" x2="6.667" transform="translate(546 317.398)" fill="none" stroke="#02243e" stroke-miterlimit="10" stroke-width="1"/>
              <line id="Line_12" data-name="Line 12" x2="6.667" transform="translate(546 321.148)" fill="none" stroke="#02243e" stroke-miterlimit="10" stroke-width="1"/>
              <line id="Line_13" data-name="Line 13" x2="6.667" transform="translate(546 324.898)" fill="none" stroke="#02243e" stroke-miterlimit="10" stroke-width="1"/>
              <line id="Line_14" data-name="Line 14" x2="6.667" transform="translate(546 328.648)" fill="none" stroke="#02243e" stroke-miterlimit="10" stroke-width="1"/>
              <line id="Line_15" data-name="Line 15" x2="6.667" transform="translate(546 332.398)" fill="none" stroke="#02243e" stroke-miterlimit="10" stroke-width="1"/>
              <line id="Line_16" data-name="Line 16" x2="6.667" transform="translate(546 336.148)" fill="none" stroke="#02243e" stroke-miterlimit="10" stroke-width="1"/>
              <line id="Line_17" data-name="Line 17" x2="6.667" transform="translate(546 339.898)" fill="none" stroke="#02243e" stroke-miterlimit="10" stroke-width="1"/>
              <line id="Line_18" data-name="Line 18" x2="6.667" transform="translate(546 343.648)" fill="none" stroke="#02243e" stroke-miterlimit="10" stroke-width="1"/>
              <line id="Line_19" data-name="Line 19" x2="6.667" transform="translate(546 347.398)" fill="none" stroke="#02243e" stroke-miterlimit="10" stroke-width="1"/>
              <line id="Line_20" data-name="Line 20" x2="6.667" transform="translate(546 351.148)" fill="none" stroke="#02243e" stroke-miterlimit="10" stroke-width="1"/>
              <line id="Line_21" data-name="Line 21" x2="6.667" transform="translate(546 354.898)" fill="none" stroke="#02243e" stroke-miterlimit="10" stroke-width="1"/>
              <line id="Line_22" data-name="Line 22" x2="6.667" transform="translate(546 358.648)" fill="none" stroke="#02243e" stroke-miterlimit="10" stroke-width="1"/>
              <line id="Line_23" data-name="Line 23" x2="6.667" transform="translate(546 362.398)" fill="none" stroke="#02243e" stroke-miterlimit="10" stroke-width="1"/>
            </g>
            <g id="Group_6" data-name="Group 6">
              <path id="Rectangle_4" data-name="Rectangle 4" d="M0,0H21.5a0,0,0,0,1,0,0V21.667a4.083,4.083,0,0,1-4.083,4.083H4.083A4.083,4.083,0,0,1,0,21.667V0A0,0,0,0,1,0,0Z" transform="translate(563.667 351.148)" fill="#3d84a8"/>
              <path id="Path_10" data-name="Path 10" d="M582.547,344.41H566.286a2.619,2.619,0,0,0-2.619,2.619v4.119h21.5v-4.119A2.62,2.62,0,0,0,582.547,344.41Z" fill="#ccf2e7"/>
            </g>
            <rect id="Rectangle_5" data-name="Rectangle 5" width="71.905" height="90.343" rx="6.286" transform="translate(535 364.898)" fill="#48466d"/>
            <path id="Path_11" data-name="Path 11" d="M539.137,365.275l2.363,89.967H594Z" fill="#48466d" opacity="0.6" style="mix-blend-mode: multiply;isolation: isolate"/>
          </g>
          <g id="Group_8" data-name="Group 8">
            <rect id="Rectangle_6" data-name="Rectangle 6" width="130.303" height="100.584" rx="7.835" transform="translate(249.933 50.239)" fill="#3d84a8"/>
            <path id="Path_12" data-name="Path 12" d="M380.236,65.143v77.845a7.835,7.835,0,0,1-7.835,7.835H257.768a7.835,7.835,0,0,1-7.835-7.835V65.143Z" fill="#1fb3db"/>
            <path id="Path_13" data-name="Path 13" d="M372.813,57.945a2.7,2.7,0,1,1-2.7-2.7A2.7,2.7,0,0,1,372.813,57.945Z" fill="#fff"/>
            <path id="Path_14" data-name="Path 14" d="M364.359,57.945a2.7,2.7,0,1,1-2.7-2.7A2.7,2.7,0,0,1,364.359,57.945Z" fill="#fff"/>
            <path id="Path_15" data-name="Path 15" d="M355.906,57.945a2.7,2.7,0,1,1-2.7-2.7A2.7,2.7,0,0,1,355.906,57.945Z" fill="#fff"/>
            <rect id="Rectangle_7" data-name="Rectangle 7" width="114.216" height="64.704" transform="translate(258.597 73.823)" fill="#3d84a8"/>
          </g>
          <g id="Group_9" data-name="Group 9">
            <rect id="Rectangle_8" data-name="Rectangle 8" width="229.378" height="292.071" rx="13.792" transform="translate(85.706 82.215)" fill="#46cdcf"/>
            <path id="Path_16" data-name="Path 16" d="M315.084,108.451V360.493a13.791,13.791,0,0,1-13.792,13.793H99.5a13.791,13.791,0,0,1-13.792-13.793V108.451Z" fill="#ccf2e7"/>
            <path id="Path_17" data-name="Path 17" d="M302.017,95.781a4.749,4.749,0,1,1-4.75-4.749A4.75,4.75,0,0,1,302.017,95.781Z" fill="#fff"/>
            <path id="Path_18" data-name="Path 18" d="M287.136,95.781a4.749,4.749,0,1,1-4.75-4.749A4.75,4.75,0,0,1,287.136,95.781Z" fill="#fff"/>
            <circle id="Ellipse_1-141" data-name="Ellipse 1" cx="4.749" cy="4.749" r="4.749" transform="translate(262.756 91.032)" fill="#fff"/>
            <rect id="Rectangle_9" data-name="Rectangle 9" width="201.059" height="113.901" transform="translate(100.958 123.731)" fill="#fff"/>
            <line id="Line_24" data-name="Line 24" x2="201.059" transform="translate(100.958 257.997)" fill="none" stroke="#fff" stroke-miterlimit="10" stroke-width="5"/>
            <line id="Line_25" data-name="Line 25" x2="201.059" transform="translate(100.958 274.361)" fill="none" stroke="#fff" stroke-miterlimit="10" stroke-width="5"/>
            <line id="Line_26" data-name="Line 26" x2="39.26" transform="translate(262.756 290.724)" fill="none" stroke="#fff" stroke-miterlimit="10" stroke-width="5"/>
            <line id="Line_27" data-name="Line 27" x2="149.523" transform="translate(100.958 290.724)" fill="none" stroke="#fff" stroke-miterlimit="10" stroke-width="5"/>
            <line id="Line_28" data-name="Line 28" x2="201.059" transform="translate(100.958 307.088)" fill="none" stroke="#fff" stroke-miterlimit="10" stroke-width="5"/>
            <line id="Line_29" data-name="Line 29" x2="92.139" transform="translate(209.878 323.451)" fill="none" stroke="#fff" stroke-miterlimit="10" stroke-width="5"/>
            <line id="Line_30" data-name="Line 30" x2="87.239" transform="translate(100.958 323.451)" fill="none" stroke="#fff" stroke-miterlimit="10" stroke-width="5"/>
            <line id="Line_31" data-name="Line 31" x2="66.492" transform="translate(100.958 339.815)" fill="none" stroke="#fff" stroke-miterlimit="10" stroke-width="5"/>
          </g>
          <g id="Group_36" data-name="Group 36">
            <g id="Group_10" data-name="Group 10">
              <path id="Rectangle_10" data-name="Rectangle 10" d="M0,0H425.815a0,0,0,0,1,0,0V11.21a8.45,8.45,0,0,1-8.45,8.45H8.45A8.45,8.45,0,0,1,0,11.21V0A0,0,0,0,1,0,0Z" transform="translate(151.104 437.273)" fill="#48466d"/>
              <path id="Rectangle_11" data-name="Rectangle 11" d="M7.762,0H343.195a7.762,7.762,0,0,1,7.762,7.762V198.977a0,0,0,0,1,0,0H0a0,0,0,0,1,0,0V7.762A7.762,7.762,0,0,1,7.762,0Z" transform="translate(188.532 229.612)" fill="#3d84a8"/>
              <rect id="Rectangle_12" data-name="Rectangle 12" width="326.275" height="177.859" transform="translate(200.874 240.171)" fill="#02243e"/>
              <rect id="Rectangle_13" data-name="Rectangle 13" width="425.815" height="8.684" transform="translate(151.104 428.59)" fill="#46cdcf"/>
            </g>
            <g id="Group_33" data-name="Group 33">
              <g id="Group_32" data-name="Group 32" clip-path="url(#clip-path-2)">
                <g id="Group_31" data-name="Group 31">
                  <g id="Group_15" data-name="Group 15">
                    <path id="Path_19" data-name="Path 19" d="M319.7,321.6l-44.331,21.5a15.593,15.593,0,0,1-20.181-6.019h0a15.592,15.592,0,0,1,6.087-21.8l45.752-24.2Z" fill="#f7d4b5"/>
                    <path id="Path_20" data-name="Path 20" d="M216.766,219.317l17.719,112.337a21.7,21.7,0,0,0,8.73,14.211h0a21.7,21.7,0,0,0,21.959,2.037l10.193-4.805-42.85-125.851Z" fill="#f7d4b5"/>
                    <g id="Group_12" data-name="Group 12">
                      <g id="Group_11" data-name="Group 11" clip-path="url(#clip-path-3)">
                        <path id="Path_21" data-name="Path 21" d="M271.788,307.876s-.093,20.824,1.075,26.06l-29.348,17.7,30.731,6.883,18.931-27.535L274.81,306.8Z" fill="#e0a6a2"/>
                      </g>
                    </g>
                    <path id="Path_23" data-name="Path 23" d="M318.714,279.115,272.863,308.03a60.992,60.992,0,0,0,5.231,18.957c5.856,12.7,13.989,14.766,18.918,18.39,19.6-7.314,38.915-18.751,58.512-26.065Z" fill="#e23e57"/>
                    <path id="Path_24" data-name="Path 24" d="M222.79,198.583s-5.683-17.323-11.3-17.983c-5.277-.621-.141,14.091-.141,14.091Z" fill="#e0a6a2"/>
                    <path id="Path_25" data-name="Path 25" d="M197.2,192.339c-.292-.964-14.05-12.933-19.658-13.916-3.361-.59-2.39,4.059.438,6.92S197.2,192.339,197.2,192.339Z" fill="#e0a6a2"/>
                    <path id="Path_26" data-name="Path 26" d="M216.766,219.317s-6-6.579-20.35-14.817-32.874-19.485-27.82-24.732c3.135-3.255,16.132,8.152,27.712,9.969s17.1,2.708,22.747,5.795c8.249,4.507,13.462,21.714,13.462,21.714Z" fill="#f7d4b5"/>
                    <g id="Group_14" data-name="Group 14">
                      <g id="Group_13" data-name="Group 13" clip-path="url(#clip-path-4)">
                        <path id="Path_27" data-name="Path 27" d="M319.7,309.269l-42.337,29.175,35.075,17.374,10.818-23.274Z" fill="#ae3e57" opacity="0.6" style="mix-blend-mode: multiply;isolation: isolate"/>
                      </g>
                    </g>
                  </g>
                  <g id="Group_21" data-name="Group 21">
                    <g id="Group_16" data-name="Group 16">
                      <rect id="Rectangle_14" data-name="Rectangle 14" width="68.429" height="92.768" rx="3.646" transform="translate(500.659 191.896) rotate(-112.464)" fill="#48466d"/>
                      <path id="Path_29" data-name="Path 29" d="M481.541,134.093l23.017,55.664c.7,1.684.545-2.547,2.228-3.243l71.463-29.548c1.683-.7,4.564,2.4,3.868.722L559.1,102.023a3.3,3.3,0,0,0-4.31-1.788l-71.462,29.549A3.3,3.3,0,0,0,481.541,134.093Z" fill="#fff"/>
                      <rect id="Rectangle_15" data-name="Rectangle 15" width="68.429" height="92.768" rx="3.646" transform="matrix(-0.382, -0.924, 0.924, -0.382, 506.595, 206.252)" fill="#3d84a8"/>
                      <rect id="Rectangle_16" data-name="Rectangle 16" width="2.782" height="83.977" transform="translate(484.532 141.326) rotate(-112.463)" fill="#d3deea" opacity="0.6"/>
                      <rect id="Rectangle_17" data-name="Rectangle 17" width="2.782" height="83.978" transform="translate(482.407 136.186) rotate(-112.465)" fill="#d3deea" opacity="0.6"/>
                      <rect id="Rectangle_18" data-name="Rectangle 18" width="50.38" height="27.806" transform="matrix(-0.382, -0.924, 0.924, -0.382, 551.208, 178.04)" fill="#fff"/>
                    </g>
                    <path id="Path_30" data-name="Path 30" d="M413.891,321.6l44.331,21.5a15.593,15.593,0,0,0,20.181-6.019h0a15.592,15.592,0,0,0-6.087-21.8l-45.752-24.2Z" fill="#f7d4b5"/>
                    <path id="Path_31" data-name="Path 31" d="M516.823,219.317,499.1,331.654a21.7,21.7,0,0,1-8.73,14.211h0a21.7,21.7,0,0,1-21.959,2.037L458.222,343.1l42.85-125.851Z" fill="#f7d4b5"/>
                    <g id="Group_18" data-name="Group 18">
                      <g id="Group_17" data-name="Group 17" clip-path="url(#clip-path-5)">
                        <path id="Path_32" data-name="Path 32" d="M461.8,307.876s.093,20.824-1.075,26.06l29.348,17.7-30.731,6.883-18.931-27.535L458.779,306.8Z" fill="#e0a6a2"/>
                      </g>
                    </g>
                    <path id="Path_34" data-name="Path 34" d="M414.875,279.115l45.851,28.915a61.015,61.015,0,0,1-5.23,18.957c-5.857,12.7-13.99,14.766-18.919,18.39-19.6-7.314-38.915-18.751-58.512-26.065Z" fill="#e23e57"/>
                    <path id="Path_35" data-name="Path 35" d="M516.823,219.317s5.995-6.579,20.35-14.817,32.874-19.485,27.82-24.732c-3.135-3.255-16.132,8.152-27.712,9.969s-17.1,2.708-22.746,5.795c-8.25,4.507-13.463,21.714-13.463,21.714Z" fill="#f7d4b5"/>
                    <g id="Group_20" data-name="Group 20">
                      <g id="Group_19" data-name="Group 19" clip-path="url(#clip-path-6)">
                        <path id="Path_36" data-name="Path 36" d="M413.891,309.269l42.337,29.175-35.075,17.374-10.818-23.274Z" fill="#ae3e57" opacity="0.6" style="mix-blend-mode: multiply;isolation: isolate"/>
                      </g>
                    </g>
                  </g>
                  <g id="Group_30" data-name="Group 30">
                    <path id="Path_38" data-name="Path 38" d="M425.066,349.33c-.439-28.517-4.839-29.837-8.716-67.925-.842-8.268-40.211-3.6-40.211-3.6h-9.624s-6.433.1-8.574,0c-17.314-.824-31.567-1.915-39.227,1.311-14.223,5.991-9.261,41.7-9.7,70.215-.182,11.8-.837,115.155-4.768,119.611H429.834C425.9,464.485,425.248,361.133,425.066,349.33Z" fill="#e23e57"/>
                    <g id="Group_27" data-name="Group 27">
                      <g id="Group_26" data-name="Group 26">
                        <path id="Path_39" data-name="Path 39" d="M375.8,263.493a86.509,86.509,0,0,0,2.681,15.331,20.638,20.638,0,0,1-23.6,0,59.852,59.852,0,0,0,4.381-20,58.916,58.916,0,0,0-.059-6.232,60.365,60.365,0,0,0-4.322-18.949h23.6c-.129.481-.259.977-.385,1.488a87.047,87.047,0,0,0-2.54,24.434Q375.627,261.584,375.8,263.493Z" fill="#f7d4b5"/>
                        <path id="Path_40" data-name="Path 40" d="M375.551,259.568q.076,2.016.244,3.925a38.207,38.207,0,0,1-16.6-10.9,60.365,60.365,0,0,0-4.322-18.949H375.95c.615.418,1.337.922,2.141,1.488A87.047,87.047,0,0,0,375.551,259.568Z" fill="#e0a6a2"/>
                        <g id="Group_25" data-name="Group 25">
                          <path id="Path_41" data-name="Path 41" d="M403.769,197.772c-.127,6.031-1.121,10.9,3.587,11s13.336-4.611,13.462-10.642-3.587-11-8.295-11.1S403.9,191.741,403.769,197.772Z" fill="#f7d4b5"/>
                          <path id="Path_42" data-name="Path 42" d="M414.006,189.193c-.666,31.693-24.538,63.005-46.131,62.552-17.837-.374-44.13-32.74-43.465-64.433s21.133-50.858,45.874-50.338S414.671,157.5,414.006,189.193Z" fill="#f7d4b5"/>
                          <path id="Path_43" data-name="Path 43" d="M329.2,196.206c-.126,6.031.662,10.939-4.046,10.84s-13.129-5.167-13-11.2,4.046-10.839,8.754-10.74S329.323,190.175,329.2,196.206Z" fill="#f7d4b5"/>
                          <g id="Group_24" data-name="Group 24">
                            <path id="Path_44" data-name="Path 44" d="M370.148,197.02s-1.318,3.484.16,5.557c0,0,6.1-1.489,7.109,2.68s-2.645,8.013-6.339,8.421" fill="none" stroke="#21282b" stroke-linecap="round" stroke-linejoin="round" stroke-width="2.636"/>
                            <path id="Path_45" data-name="Path 45" d="M341.944,184.053s5.79-10.563,16-4.669Z" fill="#21282b"/>
                            <path id="Path_46" data-name="Path 46" d="M396.766,184.053s-5.79-10.563-16-4.669Z" fill="#21282b"/>
                            <path id="Path_47" data-name="Path 47" d="M394.8,194.264a5.464,5.464,0,1,0-10.927,0" fill="none" stroke="#21282b" stroke-linecap="round" stroke-linejoin="round" stroke-width="2.636"/>
                            <path id="Path_48" data-name="Path 48" d="M357.941,194.264a5.464,5.464,0,1,0-10.927,0" fill="none" stroke="#21282b" stroke-linecap="round" stroke-linejoin="round" stroke-width="2.636"/>
                            <g id="Group_23" data-name="Group 23">
                              <g id="Group_22" data-name="Group 22" clip-path="url(#clip-path-7)">
                                <path id="Path_49" data-name="Path 49" d="M375.538,226.006c0,4.219-2.655,7.64-5.931,7.64s-5.932-3.421-5.932-7.64,2.656-4.589,5.932-4.589S375.538,221.787,375.538,226.006Z" fill="#e23e57"/>
                                <ellipse id="Ellipse_2" data-name="Ellipse 2" cx="11.163" cy="5.081" rx="11.163" ry="5.081" transform="translate(358.444 215.598)" fill="#fff"/>
                              </g>
                            </g>
                          </g>
                        </g>
                      </g>
                    </g>
                    <path id="Path_51" data-name="Path 51" d="M324.41,187.312c.651,3.969,2.913,13.62,4.081,18.513a5.13,5.13,0,0,0,3.631,3.757l3.6,1a1.391,1.391,0,0,0,1.715-1.715A95.824,95.824,0,0,1,334.2,177.6s12.847-3.4,12.814-18.954c0,0,20.61,14.506,36.86,15.489s22.15-1.229,22.15-1.229,1.289,19.331-.751,32.7a1.251,1.251,0,0,0,1.887,1.265l3.106-1.893a4.428,4.428,0,0,0,2.1-3.251c.46-3.78,1.39-11.554,1.66-14.69.519-6.018.853-14.62-3.081-23.962s-15-28.028-41.8-28.028S319.514,157.453,324.41,187.312Z" fill="#02243e"/>
                    <path id="Path_52" data-name="Path 52" d="M411.433,169.951s6.32-.983,9.388-9.506-8.612-35.731-43.233-35.731c-37.7,0-37.617,15.735-37.617,15.735s-14.668,5.573-19.3,12.784-5.286,22.5,6.187,24.363l23.084-24.363,37.232,3.934Z" fill="#02243e"/>
                    <path id="Path_53" data-name="Path 53" d="M353.411,282.716a23.522,23.522,0,0,0,13.768,4.754c8.032,0,12.129-4.754,12.129-4.754s-2.622,9.015-12.129,9.015S353.411,282.716,353.411,282.716Z" fill="#ae3e57" opacity="0.6" style="mix-blend-mode: multiply;isolation: isolate"/>
                    <g id="Group_29" data-name="Group 29">
                      <g id="Group_28" data-name="Group 28" clip-path="url(#clip-path-8)">
                        <path id="Path_54" data-name="Path 54" d="M308.545,294.747a623.1,623.1,0,0,0,49.292,184H281.13Z" fill="#ae3e57" opacity="0.6" style="mix-blend-mode: multiply;isolation: isolate"/>
                        <path id="Path_55" data-name="Path 55" d="M335.71,354.834s5.409,39.828,59.5,41.3C395.207,396.137,372.767,385.9,335.71,354.834Z" fill="#ae3e57" opacity="0.6" style="mix-blend-mode: multiply;isolation: isolate"/>
                      </g>
                    </g>
                  </g>
                  <line id="Line_32" data-name="Line 32" x2="14.264" y2="34.498" transform="translate(526.331 140.885)" fill="none" stroke="#46cdcf" stroke-miterlimit="10" stroke-width="3"/>
                </g>
              </g>
            </g>
            <g id="Group_34" data-name="Group 34">
              <path id="Path_57" data-name="Path 57" d="M257.692,127.665H131.815a3.935,3.935,0,0,1-3.934-3.934h0a3.934,3.934,0,0,1,3.934-3.934H257.692a3.934,3.934,0,0,1,3.934,3.934h0A3.934,3.934,0,0,1,257.692,127.665Z" fill="#02243e"/>
              <path id="Path_58" data-name="Path 58" d="M236.877,159.92a227.555,227.555,0,0,1-42.451,3.933,227.555,227.555,0,0,1-41.795-3.933c-.9-3.243-1.785-13.433-1.8-18.815a49.806,49.806,0,0,1,1.8-13.44h84.246a60.514,60.514,0,0,1,1.475,13.44C238.338,146.3,237.655,156.459,236.877,159.92Z" fill="#02243e"/>
              <path id="Path_59" data-name="Path 59" d="M200.982,119.8c0,1.358-2.862,2.459-6.392,2.459s-6.392-1.1-6.392-2.459,2.862-2.458,6.392-2.458S200.982,118.439,200.982,119.8Z" fill="#02243e"/>
              <rect id="Rectangle_20" data-name="Rectangle 20" width="2.95" height="39.337" transform="translate(250.481 127.664)" fill="#ffc795"/>
              <path id="Path_60" data-name="Path 60" d="M254.906,168.968a2.951,2.951,0,0,1-5.9,0c0,13.578,1.321-2.95,2.951-2.95A2.95,2.95,0,0,1,254.906,168.968Z" fill="#e29d95"/>
              <path id="Path_61" data-name="Path 61" d="M251.956,168.968c-4.164,0-7.54,6.408-7.54,10.572a3.832,3.832,0,0,0,3.416,4.2,15.952,15.952,0,0,1,.108-4.566l1.205,4.768c.869.087,1.816.108,2.811.108,4.164,0,7.539-.343,7.539-4.507S256.12,168.968,251.956,168.968Z" fill="#ffc795"/>
            </g>
            <g id="Group_35" data-name="Group 35">
              <line id="Line_33" data-name="Line 33" x2="232.413" transform="translate(294.735 406.078)" fill="none" stroke="#fff" stroke-miterlimit="10" stroke-width="3"/>
              <line id="Line_34" data-name="Line 34" x2="93.862" transform="translate(200.874 406.078)" fill="none" stroke="#e23e57" stroke-miterlimit="10" stroke-width="3"/>
              <path id="Path_62" data-name="Path 62" d="M298.059,406.078a3.957,3.957,0,1,1-3.958-3.957A3.958,3.958,0,0,1,298.059,406.078Z" fill="#e23e57"/>
            </g>
          </g>
          <g id="Group_38" data-name="Group 38">
            <path id="Rectangle_21" data-name="Rectangle 21" d="M8.193,0H63.448a8.193,8.193,0,0,1,8.193,8.193v9.028A35.821,35.821,0,0,1,35.821,53.041h0A35.821,35.821,0,0,1,0,17.221V8.193A8.193,8.193,0,0,1,8.193,0Z" transform="translate(585.166 402.201)" fill="#3d84a8"/>
            <path id="Path_63" data-name="Path 63" d="M652.164,413.613l4.64,6.175v-6.729Z" fill="#3d84a8" opacity="0.6" style="mix-blend-mode: multiply;isolation: isolate"/>
            <g id="Group_37" data-name="Group 37">
              <path id="Path_64" data-name="Path 64" d="M656.807,428.89c-7.324,0-13.061-4.276-13.061-9.736s5.737-9.736,13.061-9.736,13.061,4.276,13.061,9.736S664.131,428.89,656.807,428.89Zm0-14.723c-4.428,0-8.311,2.33-8.311,4.987s3.883,4.987,8.311,4.987,8.312-2.33,8.312-4.987S661.235,414.167,656.807,414.167Z" fill="#3d84a8"/>
            </g>
            <path id="Path_65" data-name="Path 65" d="M600.483,419.421v-9.027a8.193,8.193,0,0,1,8.193-8.193H593.359a8.193,8.193,0,0,0-8.193,8.193v9.027a35.821,35.821,0,0,0,35.82,35.821h0a35.925,35.925,0,0,0,7.659-.829A35.828,35.828,0,0,1,600.483,419.421Z" fill="#3d84a8" opacity="0.6" style="mix-blend-mode: multiply;isolation: isolate"/>
          </g>
          <rect id="Rectangle_22" data-name="Rectangle 22" width="631.167" height="10.23" transform="translate(56.258 455.242)" fill="#02243e"/>
          <g id="Group_39" data-name="Group 39">
            <rect id="Rectangle_23" data-name="Rectangle 23" width="14.576" height="76.508" transform="translate(121.155 398.143) rotate(139.422)" fill="#3d84a8"/>
            <path id="Path_66" data-name="Path 66" d="M124.951,413.778,121,397.967l-11.071,9.482Z" fill="#02243e"/>
            <path id="Path_67" data-name="Path 67" d="M58.806,336.546h0a7.287,7.287,0,0,1,10.276.8l2.306,2.692-11.071,9.482-2.306-2.693A7.288,7.288,0,0,1,58.806,336.546Z" fill="#02243e"/>
          </g>
          <path id="Path_68" data-name="Path 68" d="M637.48,284.939l3.023,8.015a1.76,1.76,0,0,0,1.026,1.026L649.544,297a1.76,1.76,0,0,1,0,3.293l-8.015,3.022a1.76,1.76,0,0,0-1.026,1.026l-3.023,8.015a1.759,1.759,0,0,1-3.292,0l-3.023-8.015a1.759,1.759,0,0,0-1.025-1.026l-8.015-3.022a1.76,1.76,0,0,1,0-3.293l8.015-3.022a1.759,1.759,0,0,0,1.025-1.026l3.023-8.015A1.759,1.759,0,0,1,637.48,284.939Z" fill="#e23e57"/>
          <path id="Path_69" data-name="Path 69" d="M598.366,243.526l1.667,4.421a.966.966,0,0,0,.565.565l4.421,1.667a.971.971,0,0,1,0,1.816l-4.421,1.667a.971.971,0,0,0-.565.566l-1.667,4.42a.971.971,0,0,1-1.816,0l-1.667-4.42a.971.971,0,0,0-.565-.566l-4.421-1.667a.971.971,0,0,1,0-1.816l4.421-1.667a.967.967,0,0,0,.565-.565l1.667-4.421A.971.971,0,0,1,598.366,243.526Z" fill="#46cdcf"/>
        </g>
      </g>
    </g>
  </g>
</svg>
