<svg xmlns="http://www.w3.org/2000/svg" width="35.967" height="32.825" viewBox="0 0 35.967 32.825">
  <g id="Group_95" data-name="Group 95" transform="translate(70.377 224.979)">
    <path id="Path_194" data-name="Path 194" d="M189.445,195.6h-4.518v-2.125a5.085,5.085,0,0,0-5.079-5.079h-8.557a5.085,5.085,0,0,0-5.079,5.079V195.6h-4.518a4.107,4.107,0,0,0-4.107,4.107v17.406a4.112,4.112,0,0,0,4.107,4.107h27.752a4.112,4.112,0,0,0,4.107-4.107v-3.3a.761.761,0,0,0-1.522,0v3.3a2.588,2.588,0,0,1-2.585,2.585H161.693a2.588,2.588,0,0,1-2.585-2.585V206.327a6.817,6.817,0,0,0,5.033,2.528v1.162a2.782,2.782,0,1,0,5.563,0V208.86h11.731v1.157a2.782,2.782,0,1,0,5.563,0v-1.162a6.817,6.817,0,0,0,5.033-2.528v3.931a.761.761,0,1,0,1.522,0v-10.55A4.107,4.107,0,0,0,189.445,195.6Zm-21.711-2.125a3.561,3.561,0,0,1,3.557-3.557h8.557a3.561,3.561,0,0,1,3.557,3.557V195.6h-1.585v-2.125a1.974,1.974,0,0,0-1.972-1.971h-8.557a1.974,1.974,0,0,0-1.971,1.971V195.6h-1.585Zm3.107,2.125v-2.125a.45.45,0,0,1,.449-.449h8.557a.45.45,0,0,1,.449.449V195.6Zm-2.66,14.416a1.259,1.259,0,1,1-2.519,0V207.3a1.259,1.259,0,0,1,2.519,0Zm17.294,0a1.259,1.259,0,1,1-2.519,0v-1.91s0-.005,0-.008,0-.005,0-.008v-.8a1.259,1.259,0,1,1,2.519,0ZM187,207.331V207.3a2.782,2.782,0,1,0-5.563,0v.042H169.7V207.3a2.782,2.782,0,1,0-5.563,0v.035a5.309,5.309,0,0,1-5.033-5.3v-2.327a2.585,2.585,0,0,1,2.585-2.585h27.752a2.585,2.585,0,0,1,2.585,2.585v2.327A5.309,5.309,0,0,1,187,207.331Z" transform="translate(-227.963 -413.376)" fill="#a1afc3"/>
  </g>
</svg>
