<svg id="Stockholm_icons_Home_Key_Copy" data-name="Stockholm icons / Home / Key Copy" xmlns="http://www.w3.org/2000/svg" width="40" height="40" viewBox="0 0 40 40">
  <g id="hidden" transform="translate(5.001 8.337)">
    <path id="Combined_Shape" data-name="Combined Shape" d="M11.751,12.7a6.68,6.68,0,0,0,.484-2.484A6.777,6.777,0,0,0,2.942,3.888L0,.952A15.945,15.945,0,0,1,5.427,0,16.113,16.113,0,0,1,20.412,10.214a16.185,16.185,0,0,1-4.677,6.468ZM5.2,6.148l.225-.021a4.088,4.088,0,0,1,4.084,4.085l-.021.225Z" transform="translate(9.552 2.043)" fill="#a1afc3"/>
    <path id="Shape" d="M25.5,25.872h0L21.528,21.9l-.577-.577A16.072,16.072,0,0,1,5.82,19.6,16.124,16.124,0,0,1,0,12.255a16.127,16.127,0,0,1,5.087-6.8l-.619-.62-3.105-3.1L3.1,0,27.234,24.142,25.5,25.871ZM8.892,9.259a6.729,6.729,0,0,0-.722,3,6.816,6.816,0,0,0,6.809,6.808,6.664,6.664,0,0,0,2.988-.722l-2.1-2.1a4.257,4.257,0,0,1-.885.1,4.091,4.091,0,0,1-4.086-4.086,4.269,4.269,0,0,1,.1-.891Z" transform="translate(0 0)" fill="#a1afc3"/>
  </g>
</svg>
