<svg id="certificate_1_" data-name="certificate (1)" xmlns="http://www.w3.org/2000/svg" width="56.809" height="49.055" viewBox="0 0 56.809 49.055">
  <path id="Path_46524" data-name="Path 46524" d="M54.866,34.936H1.942A1.944,1.944,0,0,0,0,36.878v6.834a.833.833,0,0,0,1.664,0V36.878a.278.278,0,0,1,.277-.277H54.866a.278.278,0,0,1,.277.277v40.58a.278.278,0,0,1-.277.277H44.2V76h8.37a.832.832,0,0,0,.832-.832V66.457a.833.833,0,0,0-1.664,0v7.882H44.2V70.647l.08.007a2.546,2.546,0,0,0,2.145-.46,2.556,2.556,0,0,0,.459-2.147,1.262,1.262,0,0,1,.575-1.419c1.468-1.22,1.5-2.527,0-3.77a1.263,1.263,0,0,1-.575-1.419c.163-1.861-.707-2.774-2.6-2.607a1.256,1.256,0,0,1-1.414-.576c-1.219-1.471-2.526-1.5-3.768,0a1.255,1.255,0,0,1-1.414.576c-1.863-.164-2.77.711-2.6,2.607a1.263,1.263,0,0,1-.575,1.419c-1.468,1.22-1.495,2.527,0,3.77a1.263,1.263,0,0,1,.575,1.419c-.175,1.994.777,2.765,2.684,2.6v3.692H5.068V40H51.74V62.019a.833.833,0,0,0,1.664,0V39.164a.832.832,0,0,0-.832-.832H4.236a.832.832,0,0,0-.832.832V75.171A.832.832,0,0,0,4.236,76H37.767v1.732H1.942a.278.278,0,0,1-.277-.277V47.928a.833.833,0,0,0-1.664,0V77.457A1.944,1.944,0,0,0,1.942,79.4H37.767v3.767a.832.832,0,0,0,1.183.754l2.035-.946,2.035.946a.849.849,0,0,0,1.183-.754V79.4H54.866a1.944,1.944,0,0,0,1.942-1.942V36.878a1.944,1.944,0,0,0-1.942-1.942ZM37.541,69c-.833.073-.873.029-.8-.8a2.871,2.871,0,0,0-1.169-2.844c-.675-.562-.675-.649,0-1.211a2.871,2.871,0,0,0,1.169-2.844c-.073-.833-.032-.877.8-.8a2.863,2.863,0,0,0,2.841-1.172c.559-.675.645-.675,1.2,0a2.864,2.864,0,0,0,2.841,1.172c.833-.073.873-.029.8.8A2.871,2.871,0,0,0,46.4,64.137c.675.562.675.649,0,1.211a2.87,2.87,0,0,0-1.169,2.844c.073.833.033.877-.8.8a3.477,3.477,0,0,0-1.638.119,3.32,3.32,0,0,0-1.2,1.053,3.077,3.077,0,0,1-.6.616,3.08,3.08,0,0,1-.6-.616,3.32,3.32,0,0,0-1.2-1.053A3.644,3.644,0,0,0,37.541,69ZM41.336,81.3a.832.832,0,0,0-.7,0l-1.2.559V71.615a1.86,1.86,0,0,0,3.107,0V81.861Z" transform="translate(0 -34.936)"/>
  <path id="Path_46525" data-name="Path 46525" d="M90.8,129.985h28.686a.833.833,0,0,0,0-1.664H90.8A.833.833,0,0,0,90.8,129.985Z" transform="translate(-80.005 -117.96)"/>
  <path id="Path_46526" data-name="Path 46526" d="M126.854,174.771a.832.832,0,0,0-.832-.832H90.8a.833.833,0,0,0,0,1.664h35.225A.832.832,0,0,0,126.854,174.771Z" transform="translate(-80.006 -158.516)"/>
  <path id="Path_46527" data-name="Path 46527" d="M111.642,220.388a.832.832,0,0,0-.832-.832H90.8a.833.833,0,0,0,0,1.664H110.81A.832.832,0,0,0,111.642,220.388Z" transform="translate(-80.006 -199.072)"/>
  <path id="Path_46528" data-name="Path 46528" d="M103.284,273.811l-1.361,0c-.873,0-1.353-.232-1.532-1.158-.163-.845-1.381-.737-1.6,0-.1.327-.6,1.261-1.034,1.185-.231-.04-.332-.4-.418-.582a7.1,7.1,0,0,1-.391-1.122c-.438-1.613-.525-3.3-.8-4.939-.159-.953-1.611-.683-1.635.221a25.464,25.464,0,0,1-1.572,8.424c-.381,1,1.228,1.436,1.6.443a23.531,23.531,0,0,0,.953-3.19,8.439,8.439,0,0,0,.477,1.157,1.98,1.98,0,0,0,2.538,1.1,2.84,2.84,0,0,0,1.018-.743c.787.908,1.959.867,3.051.865q2.471,0,4.942-.011a.833.833,0,0,0,0-1.664Z" transform="translate(-82.574 -240.896)"/>
  <path id="Path_46529" data-name="Path 46529" d="M343.344,280.786a3.25,3.25,0,1,0-3.25-3.25A3.254,3.254,0,0,0,343.344,280.786Zm0-4.836a1.586,1.586,0,1,1-1.586,1.586A1.588,1.588,0,0,1,343.344,275.95Z" transform="translate(-302.359 -247.729)"/>
</svg>
