<svg xmlns="http://www.w3.org/2000/svg" width="174" height="123" viewBox="0 0 174 123">
  <g id="Memphis" transform="translate(0.013)" opacity="0.2">
    <circle id="Ellipse_1" data-name="Ellipse 1" cx="2.5" cy="2.5" r="2.5" transform="translate(168.987)" fill="#05150f"/>
    <ellipse id="Ellipse_1-2" data-name="Ellipse 1" cx="3" cy="2.5" rx="3" ry="2.5" transform="translate(149.987)" fill="#05150f"/>
    <circle id="Ellipse_1-3" data-name="Ellipse 1" cx="2.5" cy="2.5" r="2.5" transform="translate(132.987)" fill="#05150f"/>
    <ellipse id="Ellipse_1-4" data-name="Ellipse 1" cx="3" cy="2.5" rx="3" ry="2.5" transform="translate(112.987)" fill="#05150f"/>
    <circle id="Ellipse_1-5" data-name="Ellipse 1" cx="2.5" cy="2.5" r="2.5" transform="translate(94.987)" fill="#05150f"/>
    <ellipse id="Ellipse_1-6" data-name="Ellipse 1" cx="3.5" cy="2.5" rx="3.5" ry="2.5" transform="translate(74.987)" fill="#05150f"/>
    <circle id="Ellipse_1-7" data-name="Ellipse 1" cx="2.5" cy="2.5" r="2.5" transform="translate(57.987)" fill="#05150f"/>
    <ellipse id="Ellipse_1-8" data-name="Ellipse 1" cx="3" cy="2.5" rx="3" ry="2.5" transform="translate(37.987)" fill="#05150f"/>
    <circle id="Ellipse_1-9" data-name="Ellipse 1" cx="2.5" cy="2.5" r="2.5" transform="translate(19.987)" fill="#05150f"/>
    <ellipse id="Ellipse_1-10" data-name="Ellipse 1" cx="3.5" cy="2.5" rx="3.5" ry="2.5" transform="translate(-0.013)" fill="#05150f"/>
    <circle id="Ellipse_1-11" data-name="Ellipse 1" cx="2.5" cy="2.5" r="2.5" transform="translate(168.987 20)" fill="#05150f"/>
    <ellipse id="Ellipse_1-12" data-name="Ellipse 1" cx="3" cy="2.5" rx="3" ry="2.5" transform="translate(149.987 20)" fill="#05150f"/>
    <circle id="Ellipse_1-13" data-name="Ellipse 1" cx="2.5" cy="2.5" r="2.5" transform="translate(132.987 20)" fill="#05150f"/>
    <ellipse id="Ellipse_1-14" data-name="Ellipse 1" cx="3" cy="2.5" rx="3" ry="2.5" transform="translate(112.987 20)" fill="#05150f"/>
    <circle id="Ellipse_1-15" data-name="Ellipse 1" cx="2.5" cy="2.5" r="2.5" transform="translate(94.987 20)" fill="#05150f"/>
    <ellipse id="Ellipse_1-16" data-name="Ellipse 1" cx="3.5" cy="2.5" rx="3.5" ry="2.5" transform="translate(74.987 20)" fill="#05150f"/>
    <circle id="Ellipse_1-17" data-name="Ellipse 1" cx="2.5" cy="2.5" r="2.5" transform="translate(57.987 20)" fill="#05150f"/>
    <ellipse id="Ellipse_1-18" data-name="Ellipse 1" cx="3" cy="2.5" rx="3" ry="2.5" transform="translate(37.987 20)" fill="#05150f"/>
    <circle id="Ellipse_1-19" data-name="Ellipse 1" cx="2.5" cy="2.5" r="2.5" transform="translate(19.987 20)" fill="#05150f"/>
    <ellipse id="Ellipse_1-20" data-name="Ellipse 1" cx="3.5" cy="2.5" rx="3.5" ry="2.5" transform="translate(-0.013 20)" fill="#05150f"/>
    <circle id="Ellipse_1-21" data-name="Ellipse 1" cx="2.5" cy="2.5" r="2.5" transform="translate(168.987 40)" fill="#05150f"/>
    <ellipse id="Ellipse_1-22" data-name="Ellipse 1" cx="3" cy="2.5" rx="3" ry="2.5" transform="translate(149.987 40)" fill="#05150f"/>
    <circle id="Ellipse_1-23" data-name="Ellipse 1" cx="2.5" cy="2.5" r="2.5" transform="translate(132.987 40)" fill="#05150f"/>
    <ellipse id="Ellipse_1-24" data-name="Ellipse 1" cx="3" cy="2.5" rx="3" ry="2.5" transform="translate(112.987 40)" fill="#05150f"/>
    <circle id="Ellipse_1-25" data-name="Ellipse 1" cx="2.5" cy="2.5" r="2.5" transform="translate(94.987 40)" fill="#05150f"/>
    <ellipse id="Ellipse_1-26" data-name="Ellipse 1" cx="3.5" cy="2.5" rx="3.5" ry="2.5" transform="translate(74.987 40)" fill="#05150f"/>
    <circle id="Ellipse_1-27" data-name="Ellipse 1" cx="2.5" cy="2.5" r="2.5" transform="translate(57.987 40)" fill="#05150f"/>
    <ellipse id="Ellipse_1-28" data-name="Ellipse 1" cx="3" cy="2.5" rx="3" ry="2.5" transform="translate(37.987 40)" fill="#05150f"/>
    <circle id="Ellipse_1-29" data-name="Ellipse 1" cx="2.5" cy="2.5" r="2.5" transform="translate(19.987 40)" fill="#05150f"/>
    <ellipse id="Ellipse_1-30" data-name="Ellipse 1" cx="3.5" cy="2.5" rx="3.5" ry="2.5" transform="translate(-0.013 40)" fill="#05150f"/>
    <ellipse id="Ellipse_1-31" data-name="Ellipse 1" cx="2.5" cy="3" rx="2.5" ry="3" transform="translate(168.987 59)" fill="#05150f"/>
    <circle id="Ellipse_1-32" data-name="Ellipse 1" cx="3" cy="3" r="3" transform="translate(149.987 59)" fill="#05150f"/>
    <ellipse id="Ellipse_1-33" data-name="Ellipse 1" cx="2.5" cy="3" rx="2.5" ry="3" transform="translate(132.987 59)" fill="#05150f"/>
    <circle id="Ellipse_1-34" data-name="Ellipse 1" cx="3" cy="3" r="3" transform="translate(112.987 59)" fill="#05150f"/>
    <ellipse id="Ellipse_1-35" data-name="Ellipse 1" cx="2.5" cy="3" rx="2.5" ry="3" transform="translate(94.987 59)" fill="#05150f"/>
    <ellipse id="Ellipse_1-36" data-name="Ellipse 1" cx="3.5" cy="3" rx="3.5" ry="3" transform="translate(74.987 59)" fill="#05150f"/>
    <ellipse id="Ellipse_1-37" data-name="Ellipse 1" cx="2.5" cy="3" rx="2.5" ry="3" transform="translate(57.987 59)" fill="#05150f"/>
    <circle id="Ellipse_1-38" data-name="Ellipse 1" cx="3" cy="3" r="3" transform="translate(37.987 59)" fill="#05150f"/>
    <ellipse id="Ellipse_1-39" data-name="Ellipse 1" cx="2.5" cy="3" rx="2.5" ry="3" transform="translate(19.987 59)" fill="#05150f"/>
    <ellipse id="Ellipse_1-40" data-name="Ellipse 1" cx="3.5" cy="3" rx="3.5" ry="3" transform="translate(-0.013 59)" fill="#05150f"/>
    <circle id="Ellipse_1-41" data-name="Ellipse 1" cx="2.5" cy="2.5" r="2.5" transform="translate(168.987 78)" fill="#05150f"/>
    <ellipse id="Ellipse_1-42" data-name="Ellipse 1" cx="3" cy="2.5" rx="3" ry="2.5" transform="translate(149.987 78)" fill="#05150f"/>
    <circle id="Ellipse_1-43" data-name="Ellipse 1" cx="2.5" cy="2.5" r="2.5" transform="translate(132.987 78)" fill="#05150f"/>
    <ellipse id="Ellipse_1-44" data-name="Ellipse 1" cx="3" cy="2.5" rx="3" ry="2.5" transform="translate(112.987 78)" fill="#05150f"/>
    <circle id="Ellipse_1-45" data-name="Ellipse 1" cx="2.5" cy="2.5" r="2.5" transform="translate(94.987 78)" fill="#05150f"/>
    <ellipse id="Ellipse_1-46" data-name="Ellipse 1" cx="3.5" cy="2.5" rx="3.5" ry="2.5" transform="translate(74.987 78)" fill="#05150f"/>
    <circle id="Ellipse_1-47" data-name="Ellipse 1" cx="2.5" cy="2.5" r="2.5" transform="translate(57.987 78)" fill="#05150f"/>
    <ellipse id="Ellipse_1-48" data-name="Ellipse 1" cx="3" cy="2.5" rx="3" ry="2.5" transform="translate(37.987 78)" fill="#05150f"/>
    <circle id="Ellipse_1-49" data-name="Ellipse 1" cx="2.5" cy="2.5" r="2.5" transform="translate(19.987 78)" fill="#05150f"/>
    <ellipse id="Ellipse_1-50" data-name="Ellipse 1" cx="3.5" cy="2.5" rx="3.5" ry="2.5" transform="translate(-0.013 78)" fill="#05150f"/>
    <circle id="Ellipse_1-51" data-name="Ellipse 1" cx="2.5" cy="2.5" r="2.5" transform="translate(168.987 98)" fill="#05150f"/>
    <ellipse id="Ellipse_1-52" data-name="Ellipse 1" cx="3" cy="2.5" rx="3" ry="2.5" transform="translate(149.987 98)" fill="#05150f"/>
    <circle id="Ellipse_1-53" data-name="Ellipse 1" cx="2.5" cy="2.5" r="2.5" transform="translate(132.987 98)" fill="#05150f"/>
    <ellipse id="Ellipse_1-54" data-name="Ellipse 1" cx="3" cy="2.5" rx="3" ry="2.5" transform="translate(112.987 98)" fill="#05150f"/>
    <circle id="Ellipse_1-55" data-name="Ellipse 1" cx="2.5" cy="2.5" r="2.5" transform="translate(94.987 98)" fill="#05150f"/>
    <ellipse id="Ellipse_1-56" data-name="Ellipse 1" cx="3.5" cy="2.5" rx="3.5" ry="2.5" transform="translate(74.987 98)" fill="#05150f"/>
    <circle id="Ellipse_1-57" data-name="Ellipse 1" cx="2.5" cy="2.5" r="2.5" transform="translate(57.987 98)" fill="#05150f"/>
    <ellipse id="Ellipse_1-58" data-name="Ellipse 1" cx="3" cy="2.5" rx="3" ry="2.5" transform="translate(37.987 98)" fill="#05150f"/>
    <circle id="Ellipse_1-59" data-name="Ellipse 1" cx="2.5" cy="2.5" r="2.5" transform="translate(19.987 98)" fill="#05150f"/>
    <ellipse id="Ellipse_1-60" data-name="Ellipse 1" cx="3.5" cy="2.5" rx="3.5" ry="2.5" transform="translate(-0.013 98)" fill="#05150f"/>
    <circle id="Ellipse_1-61" data-name="Ellipse 1" cx="2.5" cy="2.5" r="2.5" transform="translate(168.987 118)" fill="#05150f"/>
    <ellipse id="Ellipse_1-62" data-name="Ellipse 1" cx="3" cy="2.5" rx="3" ry="2.5" transform="translate(149.987 118)" fill="#05150f"/>
    <circle id="Ellipse_1-63" data-name="Ellipse 1" cx="2.5" cy="2.5" r="2.5" transform="translate(132.987 118)" fill="#05150f"/>
    <ellipse id="Ellipse_1-64" data-name="Ellipse 1" cx="3" cy="2.5" rx="3" ry="2.5" transform="translate(112.987 118)" fill="#05150f"/>
    <circle id="Ellipse_1-65" data-name="Ellipse 1" cx="2.5" cy="2.5" r="2.5" transform="translate(94.987 118)" fill="#05150f"/>
    <ellipse id="Ellipse_1-66" data-name="Ellipse 1" cx="3.5" cy="2.5" rx="3.5" ry="2.5" transform="translate(74.987 118)" fill="#05150f"/>
    <circle id="Ellipse_1-67" data-name="Ellipse 1" cx="2.5" cy="2.5" r="2.5" transform="translate(57.987 118)" fill="#05150f"/>
    <ellipse id="Ellipse_1-68" data-name="Ellipse 1" cx="3" cy="2.5" rx="3" ry="2.5" transform="translate(37.987 118)" fill="#05150f"/>
    <circle id="Ellipse_1-69" data-name="Ellipse 1" cx="2.5" cy="2.5" r="2.5" transform="translate(19.987 118)" fill="#05150f"/>
    <ellipse id="Ellipse_1-70" data-name="Ellipse 1" cx="3.5" cy="2.5" rx="3.5" ry="2.5" transform="translate(-0.013 118)" fill="#05150f"/>
  </g>
</svg>
