<svg id="Group_3" data-name="Group 3" xmlns="http://www.w3.org/2000/svg" width="164.279" height="49.576" viewBox="0 0 164.279 49.576">
  <path id="Path_7" data-name="Path 7" d="M108.736,182.567a9.82,9.82,0,0,1,.762-3.856,9.28,9.28,0,0,1,2.1-3.077,9.806,9.806,0,0,1,3.221-2.044,11.664,11.664,0,0,1,6.758-.428,9.261,9.261,0,0,1,2.132.81,8.487,8.487,0,0,1,1.63,1.123,9,9,0,0,1,1.194,1.282,9.727,9.727,0,0,1,1.7,3.484l-4.083-.012a5.016,5.016,0,0,0-1.049-1.638,6.589,6.589,0,0,0-1.616-1.137,5.607,5.607,0,0,0-2.594-.534,6.112,6.112,0,0,0-2.373.44,5.6,5.6,0,0,0-1.873,1.246,5.809,5.809,0,0,0-1.244,1.9,6.5,6.5,0,0,0-.456,2.448,7.065,7.065,0,0,0,.416,2.518,5.355,5.355,0,0,0,1.192,1.915,5.209,5.209,0,0,0,1.867,1.216,6.711,6.711,0,0,0,2.434.428,5.451,5.451,0,0,0,2.675-.571,6.207,6.207,0,0,0,1.65-1.26,5.7,5.7,0,0,0,1.087-1.841l4.083.012a10.992,10.992,0,0,1-1.827,3.683,11.567,11.567,0,0,1-1.244,1.354,7.78,7.78,0,0,1-1.662,1.18,9.577,9.577,0,0,1-2.136.824,10.156,10.156,0,0,1-2.636.309,10.86,10.86,0,0,1-4.081-.762,9.789,9.789,0,0,1-3.209-2.064,9.244,9.244,0,0,1-2.084-3.089A9.81,9.81,0,0,1,108.736,182.567Z" transform="translate(-108.736 -143.002)" fill="#040505"/>
  <path id="Path_8" data-name="Path 8" d="M119.32,182.549a7.514,7.514,0,0,1,.561-2.882,7.1,7.1,0,0,1,3.9-3.908,7.443,7.443,0,0,1,2.94-.565,7.337,7.337,0,0,1,2.922.583,7.219,7.219,0,0,1,2.327,1.579,7.4,7.4,0,0,1-2.367,12.027,7.793,7.793,0,0,1-5.862-.018,7.091,7.091,0,0,1-3.876-3.933A7.516,7.516,0,0,1,119.32,182.549Zm3.82.012a5.093,5.093,0,0,0,.271,1.728,3.978,3.978,0,0,0,.76,1.324,3.594,3.594,0,0,0,1.131.86,3.256,3.256,0,0,0,2.767.008,3.583,3.583,0,0,0,1.135-.854,4,4,0,0,0,.768-1.318,5.552,5.552,0,0,0,.01-3.456,3.959,3.959,0,0,0-.76-1.324,3.542,3.542,0,0,0-1.131-.862,3.171,3.171,0,0,0-1.381-.313,3.216,3.216,0,0,0-1.385.3,3.56,3.56,0,0,0-1.135.856,3.959,3.959,0,0,0-.768,1.318A5.123,5.123,0,0,0,123.14,182.561Z" transform="translate(-98.252 -140.681)" fill="#040505"/>
  <path id="Path_9" data-name="Path 9" d="M127.814,175.406l3.687.01-.024,8.018a3.419,3.419,0,0,0,.731,2.381,2.632,2.632,0,0,0,2.028.808,2.807,2.807,0,0,0,1.212-.273,3.2,3.2,0,0,0,1.015-.758,3.479,3.479,0,0,0,.689-1.172,4.433,4.433,0,0,0,.255-1.521l.022-7.465,3.689.012-.042,13.962-3.687-.01,0-1.843-.131,0a3.742,3.742,0,0,1-.977,1.131,5.848,5.848,0,0,1-1.32.76,4.83,4.83,0,0,1-1.925.336,5.048,5.048,0,0,1-3.868-1.5,6.2,6.2,0,0,1-1.383-4.391Z" transform="translate(-89.863 -140.471)" fill="#040505"/>
  <path id="Path_10" data-name="Path 10" d="M135.961,175.616l3.687.01,0,1.977.129,0a3.12,3.12,0,0,1,.715-1.1,5.52,5.52,0,0,1,1.059-.84,3.022,3.022,0,0,1,1.66-.418l1.581.006-.012,3.557L142.8,178.8a3.062,3.062,0,0,0-2.333.862,3.28,3.28,0,0,0-.836,2.355l-.022,7.574-3.689-.01Z" transform="translate(-81.809 -140.634)" fill="#040505"/>
  <path id="Path_11" data-name="Path 11" d="M144.642,185.083a2.971,2.971,0,0,0,.577.961,2.943,2.943,0,0,0,2.315.936,3.018,3.018,0,0,0,1.768-.366,1.215,1.215,0,0,0,.476-1.005.886.886,0,0,0-.617-.83,8.9,8.9,0,0,0-1.539-.5l-1.975-.474a7.926,7.926,0,0,1-2-.75,4.65,4.65,0,0,1-1.539-1.328,3.6,3.6,0,0,1-.613-2.21,3.655,3.655,0,0,1,.374-1.6,4.057,4.057,0,0,1,1.085-1.364,5.514,5.514,0,0,1,1.766-.945,7.639,7.639,0,0,1,2.452-.352,8.705,8.705,0,0,1,1.9.2,6.508,6.508,0,0,1,1.487.524,5.523,5.523,0,0,1,1.117.74,5.583,5.583,0,0,1,.788.824,5.394,5.394,0,0,1,1.019,2.243l-3.687-.012a2.146,2.146,0,0,0-.472-.741,3.048,3.048,0,0,0-.8-.5,3.275,3.275,0,0,0-1.358-.243,2.263,2.263,0,0,0-1.421.342.965.965,0,0,0-.424.756.886.886,0,0,0,.617.83,8.74,8.74,0,0,0,1.539.5q.92.224,2,.476a8.021,8.021,0,0,1,1.975.75,4.67,4.67,0,0,1,1.539,1.328,3.606,3.606,0,0,1,.613,2.208,3.849,3.849,0,0,1-.4,1.7,4.337,4.337,0,0,1-1.163,1.443,5.9,5.9,0,0,1-1.9,1.015,8.065,8.065,0,0,1-2.612.378,8.534,8.534,0,0,1-1.947-.209,6.379,6.379,0,0,1-2.723-1.362,5.447,5.447,0,0,1-.854-.9,6.6,6.6,0,0,1-1.178-2.464Z" transform="translate(-76.952 -140.621)" fill="#040505"/>
  <path id="Path_12" data-name="Path 12" d="M147.906,182.633a7.588,7.588,0,0,1,.561-2.882A7.244,7.244,0,0,1,150,177.408a7.394,7.394,0,0,1,8.052-1.555,6.854,6.854,0,0,1,2.249,1.577,7.083,7.083,0,0,1,1.455,2.331,7.781,7.781,0,0,1,.5,2.839l0,.814-10.538-.032a4.728,4.728,0,0,0,.4,1.336,4.17,4.17,0,0,0,.762,1.117,3.528,3.528,0,0,0,1.037.754,2.745,2.745,0,0,0,1.21.281,3.1,3.1,0,0,0,1.463-.3,4.178,4.178,0,0,0,.938-.645,3.2,3.2,0,0,0,.637-.948l3.951.012a7.4,7.4,0,0,1-1.326,2.526,7.656,7.656,0,0,1-.926.924,6.737,6.737,0,0,1-1.212.812,6.578,6.578,0,0,1-1.569.571,8.568,8.568,0,0,1-1.965.205,7.171,7.171,0,0,1-5.158-2.16,7.258,7.258,0,0,1-1.521-2.355A7.547,7.547,0,0,1,147.906,182.633Zm10.411-1.473a3.413,3.413,0,0,0-.364-.981,3.142,3.142,0,0,0-.671-.824,3.383,3.383,0,0,0-.948-.577,3.321,3.321,0,0,0-3.32.551,3.81,3.81,0,0,0-1.153,1.813Z" transform="translate(-69.935 -140.598)" fill="#040505"/>
  <path id="Path_13" data-name="Path 13" d="M158.229,176.863a2.069,2.069,0,0,0,1.5-.587,1.88,1.88,0,0,0,.008-2.767,2.2,2.2,0,0,0-3-.008,1.878,1.878,0,0,0-.008,2.765A2.058,2.058,0,0,0,158.229,176.863Z" transform="translate(-61.791 -142.942)" fill="#42b39a"/>
  <rect id="Rectangle_1" data-name="Rectangle 1" width="13.963" height="3.688" transform="translate(94.549 49.065) rotate(-89.831)" fill="#040505"/>
  <path id="Path_14" data-name="Path 14" d="M159.585,175.683l3.687.012-.006,1.845h.133a3.926,3.926,0,0,1,.977-1.1,6.266,6.266,0,0,1,1.308-.772,4.623,4.623,0,0,1,1.937-.35,5.047,5.047,0,0,1,3.868,1.5,6.205,6.205,0,0,1,1.381,4.4l-.024,8.478-3.689-.012.024-8.018a3.389,3.389,0,0,0-.731-2.377,2.612,2.612,0,0,0-2.024-.808,2.775,2.775,0,0,0-1.214.273,3.234,3.234,0,0,0-1.017.756,3.527,3.527,0,0,0-.687,1.172,4.373,4.373,0,0,0-.255,1.519l-.024,7.467-3.687-.012Z" transform="translate(-58.407 -140.563)" fill="#040505"/>
  <path id="Path_15" data-name="Path 15" d="M167.111,176.7l1.714,0,.006-2.371,3.689.01-.008,2.373,3.794.01-.008,3.163-3.8-.012-.022,7.64,3.953.01-.008,3.163-7.642-.022.032-10.8-1.714-.006Z" transform="translate(-50.921 -141.534)" fill="#040505"/>
  <path id="Path_16" data-name="Path 16" d="M172.456,182.705a7.6,7.6,0,0,1,.561-2.882,7.266,7.266,0,0,1,1.537-2.343,7.386,7.386,0,0,1,8.052-1.553,6.819,6.819,0,0,1,2.249,1.575,7.117,7.117,0,0,1,1.455,2.331,7.784,7.784,0,0,1,.5,2.841l0,.812-10.538-.032a4.8,4.8,0,0,0,.4,1.336,4.216,4.216,0,0,0,.762,1.117,3.483,3.483,0,0,0,1.037.756,2.77,2.77,0,0,0,1.21.279,3.131,3.131,0,0,0,1.463-.295,4.309,4.309,0,0,0,.94-.647,3.287,3.287,0,0,0,.635-.945l3.951.012a7.483,7.483,0,0,1-1.326,2.524,7.654,7.654,0,0,1-.926.924,6.635,6.635,0,0,1-1.212.812,6.565,6.565,0,0,1-1.571.571,8.551,8.551,0,0,1-1.963.205,7.171,7.171,0,0,1-5.158-2.16A7.249,7.249,0,0,1,173,185.59,7.558,7.558,0,0,1,172.456,182.705Zm10.411-1.471a3.3,3.3,0,0,0-.366-.983,3.129,3.129,0,0,0-.667-.824,3.424,3.424,0,0,0-.949-.577,3.335,3.335,0,0,0-3.32.551,3.835,3.835,0,0,0-1.153,1.813Z" transform="translate(-45.616 -140.527)" fill="#040505"/>
  <path id="Path_17" data-name="Path 17" d="M180.837,173.312l3.689.01-.046,15.28,3.03.01-.01,3.161-6.716-.018Z" transform="translate(-37.367 -142.546)" fill="#040505"/>
  <path id="Path_18" data-name="Path 18" d="M185.073,173.324l3.689.012-.046,15.28,3.03.008-.01,3.163-6.716-.02Z" transform="translate(-33.171 -142.534)" fill="#040505"/>
  <rect id="Rectangle_2" data-name="Rectangle 2" width="13.963" height="3.688" transform="translate(160.278 49.258) rotate(-89.831)" fill="#040505"/>
  <path id="Path_19" data-name="Path 19" d="M191.249,176.96a2.064,2.064,0,0,0,1.5-.587,1.882,1.882,0,0,0,.01-2.767,2.2,2.2,0,0,0-3-.008,1.878,1.878,0,0,0-.008,2.765A2.055,2.055,0,0,0,191.249,176.96Z" transform="translate(-29.082 -142.846)" fill="#fc8e0b"/>
  <path id="Path_20" data-name="Path 20" d="M115.7,167.746a1.556,1.556,0,0,0-1.162.492,1.738,1.738,0,0,0-.008,2.381,1.593,1.593,0,0,0,1.161.488,1.545,1.545,0,0,0,1.161-.492,1.709,1.709,0,0,0,.008-2.383A1.557,1.557,0,0,0,115.7,167.746Z" transform="translate(-103.465 -148.059)" fill="#fc8e0b"/>
  <path id="Path_21" data-name="Path 21" d="M113.63,167.739a1.565,1.565,0,0,0-1.162.494,1.735,1.735,0,0,0-.006,2.381,1.646,1.646,0,0,0,2.345-.006,1.611,1.611,0,0,0,.486-1.182,1.646,1.646,0,0,0-.48-1.2A1.591,1.591,0,0,0,113.63,167.739Z" transform="translate(-105.511 -148.066)" fill="#42b39a"/>
  <path id="Path_22" data-name="Path 22" d="M136.888,161.677a1.571,1.571,0,0,0,1.163-.492,1.74,1.74,0,0,0,.008-2.383,1.549,1.549,0,0,0-1.161-.5,1.572,1.572,0,0,0-1.163.494,1.674,1.674,0,0,0-.474,1.194,1.624,1.624,0,0,0,.468,1.186A1.538,1.538,0,0,0,136.888,161.677Z" transform="translate(-82.46 -157.413)" fill="#42b39a"/>
  <path id="Path_23" data-name="Path 23" d="M134.825,161.671a1.6,1.6,0,0,0,1.184-.492,1.74,1.74,0,0,0,.008-2.383,1.6,1.6,0,0,0-1.182-.5,1.565,1.565,0,0,0-1.163.494,1.675,1.675,0,0,0-.476,1.194,1.64,1.64,0,0,0,.468,1.186A1.542,1.542,0,0,0,134.825,161.671Z" transform="translate(-84.505 -157.419)" fill="#112459"/>
  <path id="Path_24" data-name="Path 24" d="M143.953,161.611a1.7,1.7,0,1,0-1.2-2.916,1.7,1.7,0,0,0,1.2,2.916Z" transform="translate(-75.537 -157.512)" fill="#fc8e0b"/>
  <path id="Path_25" data-name="Path 25" d="M221.56,169.912a29.31,29.31,0,0,0-.778-6.858l-3.193.426a29.951,29.951,0,0,1,.7,6.639,22.9,22.9,0,0,1-.189,2.974l-.641,0a4.13,4.13,0,0,1-2.319-.454,2.327,2.327,0,0,1-.6-1.913l.018-6.215-3.143-.008-.016,5.6q-.009,3.168-1.993,3.161a1.386,1.386,0,0,1-1.4-.766,6.522,6.522,0,0,1-.295-2.431l.014-4.58-3.265-.01-.014,4.509a4.151,4.151,0,0,1-.526,2.44,2.051,2.051,0,0,1-1.72.623l-.956,0-.277,0-6.734-.02h-.279l-6.732-.02h-.281l-6.635-.02-.374,0-2.056-.006.026-9.067-3.263-.01-.028,9.067-3.191-.008-.279,0-6.637-.02h-.372l-1.825-.006.026-9.067-3.265-.01-.026,9.067-3.193-.008-.277,0-6.639-.02h-.374l-2.1-.006L146.511,158l-3.265-.01-.044,14.882-2.791-.008-.281,0-6.649-.018-.362,0-1.718-.006.012-3.915a5.689,5.689,0,0,0-1.208-4.005q-1.373-1.466-4.493-1.477a24.751,24.751,0,0,0-4.97.458l-.026,8.91-1.692-.006q-3.386-.009-4.8-1.272a4.905,4.905,0,0,1-1.332-3.872,9.7,9.7,0,0,1,.86-4.083l-3.5.557a11.292,11.292,0,0,0-.653,3.89,6.761,6.761,0,0,0,2,5.363q2.219,1.977,7.067,1.991l5.174.016.028-9.236a9.144,9.144,0,0,1,1.632-.139,2.666,2.666,0,0,1,2.138.731,3.981,3.981,0,0,1,.6,2.516l-.018,6.141,4.883.014.362,0,6.649.02h.281l8.157.024.376,0,6.637.02h.279l8.281.024.374,0,6.635.02h.281l8.51.026h.374l6.637.02h.279l6.732.02.279,0,6.734.02h.277l.932,0q2.538.006,3.3-1.72.636,1.923,3.282,1.933,2.854.006,3.742-1.889a2.807,2.807,0,0,0,1.581,1.372,9.836,9.836,0,0,0,3,.348l4.087.012A41.406,41.406,0,0,0,221.56,169.912Z" transform="translate(-107.87 -157.723)" fill="#040505"/>
  <path id="Path_26" data-name="Path 26" d="M170.508,172.953a4.173,4.173,0,0,1-.721,2.731,2.473,2.473,0,0,1-1.973.719,7.375,7.375,0,0,1-2.007-.295l-.249,2.6a8.71,8.71,0,0,0,2.076.247q6.118.018,6.137-6.171l.034-11.738-3.265-.01Z" transform="translate(-52.448 -154.709)" fill="#040505"/>
  <path id="Path_27" data-name="Path 27" d="M209.865,157.856l-9.833,6.113-.006,2.393q5.846,1.385,6.047,7.007L199,173.347h-.281l-6.732-.02-.279,0-6.651-.018-.36,0-2.058-.006.026-8.524a14.542,14.542,0,0,0-5.172-.872,6.5,6.5,0,0,0-5,1.871,6.119,6.119,0,0,0-1.585,4.322q-.015,5.742,6.621,5.763l1.933.006v.374q-.009,3.287-4.3,3.276a17.958,17.958,0,0,1-3.854-.436l-.215,2.671a22.456,22.456,0,0,0,3.772.338q3.941.009,5.954-1.8a5.594,5.594,0,0,0,1.813-4.369v-.05l2.056.006.362,0,6.651.02h.277l6.732.02.281,0,10.261.03,0-1.656q.021-7.1-5.458-9.579l6.053-3.621Zm-30.39,15.433-1.583,0q-3.723-.012-3.712-3.482a3.548,3.548,0,0,1,.792-2.391,2.681,2.681,0,0,1,2.166-.936,5.473,5.473,0,0,1,2.357.454Z" transform="translate(-47.144 -157.856)" fill="#040505"/>
</svg>
