<svg id="Group_6" data-name="Group 6" xmlns="http://www.w3.org/2000/svg" width="161.309" height="25.135" viewBox="0 0 161.309 25.135">
  <g id="Group_4" data-name="Group 4" transform="translate(36.868 15.724)">
    <path id="Path_28" data-name="Path 28" d="M132.631,208.451a4.7,4.7,0,0,1-1.672.287,2.82,2.82,0,0,1-2.323-.944,3.3,3.3,0,0,1-.633-2.142,3.658,3.658,0,0,1,.808-2.5,3.017,3.017,0,0,1,2.413-.967,4.755,4.755,0,0,1,1.37.2l-.175,1.141a3.429,3.429,0,0,0-1.252-.231,1.612,1.612,0,0,0-1.354.6,2.46,2.46,0,0,0-.45,1.551q-.006,2.168,1.863,2.174a2.722,2.722,0,0,0,1.218-.267Z" transform="translate(-128.003 -201.857)" fill="#040505"/>
    <path id="Path_29" data-name="Path 29" d="M134.692,207.23a2.3,2.3,0,0,1-1.738.711q-2.216-.006-2.208-2.383a2.554,2.554,0,0,1,.673-1.819,2.3,2.3,0,0,1,1.748-.711,2.186,2.186,0,0,1,1.614.577,2.458,2.458,0,0,1,.593,1.8A2.565,2.565,0,0,1,134.692,207.23Zm-1.61-3.175a.961.961,0,0,0-.744.326,1.551,1.551,0,0,0-.338,1.059q0,1.46,1.055,1.465a.919.919,0,0,0,.758-.36,1.7,1.7,0,0,0,.309-1.081Q134.124,204.058,133.082,204.055Z" transform="translate(-125.285 -201.025)" fill="#040505"/>
    <path id="Path_30" data-name="Path 30" d="M136.489,207.814a4.926,4.926,0,0,1,.06-.844h-.01a1.671,1.671,0,0,1-1.608.934c-.938,0-1.405-.506-1.4-1.5l.01-3.318,1.208,0-.01,3.022q0,.779.587.782a.936.936,0,0,0,.78-.45,1.779,1.779,0,0,0,.32-1.067l.006-2.283,1.216,0-.014,4.726Z" transform="translate(-122.531 -200.974)" fill="#040505"/>
    <path id="Path_31" data-name="Path 31" d="M138.789,204.238c-.876-.175-1.316.388-1.32,1.7l-.006,1.931-1.216,0,.014-4.726,1.151,0a5.22,5.22,0,0,1-.092.95h.02a1.38,1.38,0,0,1,1.507-1.039Z" transform="translate(-119.837 -201.013)" fill="#040505"/>
    <path id="Path_32" data-name="Path 32" d="M140.422,207.539a2.452,2.452,0,0,1-1.509.424,4.082,4.082,0,0,1-1.059-.123l.092-1.017a2.516,2.516,0,0,0,1.005.193c.51,0,.762-.169.764-.514a.49.49,0,0,0-.3-.432c-.02-.01-.239-.1-.659-.257a1.289,1.289,0,0,1-.957-1.266,1.312,1.312,0,0,1,.492-1.065,2.318,2.318,0,0,1,1.519-.438,4.172,4.172,0,0,1,.854.1l-.06.952a2.958,2.958,0,0,0-.854-.127c-.464,0-.695.159-.7.484a.487.487,0,0,0,.307.424l.667.273a1.312,1.312,0,0,1,.969,1.26A1.353,1.353,0,0,1,140.422,207.539Z" transform="translate(-118.3 -201.01)" fill="#040505"/>
    <path id="Path_33" data-name="Path 33" d="M143.945,205.748l-2.92-.008a1.14,1.14,0,0,0,1.3,1.28,3.56,3.56,0,0,0,1.368-.275l.129.926a4.929,4.929,0,0,1-1.71.3q-2.332-.009-2.323-2.423a2.618,2.618,0,0,1,.6-1.776,2.058,2.058,0,0,1,1.65-.715,1.9,1.9,0,0,1,1.5.585,2.088,2.088,0,0,1,.454,1.425A3.918,3.918,0,0,1,143.945,205.748Zm-1.159-.81q.03-.988-.814-.991c-.551,0-.862.326-.936.985Z" transform="translate(-116.326 -200.999)" fill="#040505"/>
    <path id="Path_34" data-name="Path 34" d="M144.893,207.554a2.459,2.459,0,0,1-1.511.422,4.056,4.056,0,0,1-1.057-.123l.092-1.017a2.491,2.491,0,0,0,1.007.193q.758,0,.762-.514a.487.487,0,0,0-.3-.432c-.018-.01-.239-.1-.659-.257a1.287,1.287,0,0,1-.957-1.266,1.319,1.319,0,0,1,.49-1.065,2.331,2.331,0,0,1,1.521-.438,4.172,4.172,0,0,1,.854.1l-.06.952a2.935,2.935,0,0,0-.852-.127c-.466,0-.7.159-.7.486a.493.493,0,0,0,.3.424l.669.271a1.314,1.314,0,0,1,.971,1.26A1.361,1.361,0,0,1,144.893,207.554Z" transform="translate(-113.871 -200.997)" fill="#040505"/>
    <path id="Path_35" data-name="Path 35" d="M146.549,203.282a.747.747,0,0,1-.537.215.73.73,0,0,1-.533-.215.7.7,0,0,1-.217-.52.748.748,0,0,1,.754-.74.742.742,0,0,1,.537.215.7.7,0,0,1,.221.529A.682.682,0,0,1,146.549,203.282Zm-1.163,5.641.014-4.726,1.216,0-.014,4.728Z" transform="translate(-110.907 -202.022)" fill="#040505"/>
    <path id="Path_36" data-name="Path 36" d="M149.5,207.9l.008-3.022c0-.522-.2-.782-.587-.782a.93.93,0,0,0-.776.448,1.78,1.78,0,0,0-.324,1.067l-.006,2.283-1.216,0,.014-4.726,1.151,0a4.361,4.361,0,0,1-.072.844h.014a1.671,1.671,0,0,1,1.608-.934c.94,0,1.405.506,1.4,1.5l-.01,3.32Z" transform="translate(-109.588 -200.979)" fill="#040505"/>
    <path id="Path_37" data-name="Path 37" d="M152.922,207.911a5.683,5.683,0,0,1,.05-.8l-.01-.01a1.481,1.481,0,0,1-1.511.9,1.323,1.323,0,0,1-1-.388,1.443,1.443,0,0,1,.394-2.206,4.041,4.041,0,0,1,1.989-.4l0-.171a.862.862,0,0,0-.191-.629.886.886,0,0,0-.653-.2,3.557,3.557,0,0,0-1.429.32l-.2-.934a4.8,4.8,0,0,1,1.788-.316,2.106,2.106,0,0,1,1.5.442,1.641,1.641,0,0,1,.4,1.226l-.006,1.951c0,.464.012.868.036,1.216Zm-.086-2.1c-1.039,0-1.561.235-1.561.711a.529.529,0,0,0,.151.392.558.558,0,0,0,.418.163.888.888,0,0,0,.715-.356,1.206,1.206,0,0,0,.277-.784Z" transform="translate(-106.109 -200.974)" fill="#040505"/>
    <path id="Path_38" data-name="Path 38" d="M156.589,207.917l.008-3.022q0-.782-.587-.782a.93.93,0,0,0-.776.448,1.779,1.779,0,0,0-.322,1.067l-.008,2.283-1.216,0,.014-4.726,1.153,0a4.343,4.343,0,0,1-.074.844h.014a1.668,1.668,0,0,1,1.608-.934q1.409.006,1.4,1.5l-.01,3.318Z" transform="translate(-102.561 -200.958)" fill="#040505"/>
    <path id="Path_39" data-name="Path 39" d="M160.4,205.8l-2.92-.008a1.139,1.139,0,0,0,1.3,1.28,3.563,3.563,0,0,0,1.37-.275l.127.926a4.91,4.91,0,0,1-1.708.3,2.1,2.1,0,0,1-2.325-2.421,2.631,2.631,0,0,1,.6-1.778,2.061,2.061,0,0,1,1.65-.715,1.9,1.9,0,0,1,1.5.585,2.08,2.08,0,0,1,.456,1.427A4.11,4.11,0,0,1,160.4,205.8Zm-1.159-.81q.03-.988-.814-.991-.827,0-.936.987Z" transform="translate(-100.033 -200.951)" fill="#040505"/>
    <path id="Path_40" data-name="Path 40" d="M164.505,207.9l-1.324,0-.677-2.1c-.1-.352-.189-.709-.267-1.063h-.01c-.076.358-.185.754-.322,1.186l-.605,1.967-1.258,0-1.429-4.73,1.332,0,.5,1.788q.308,1.176.366,1.427h.01a14.068,14.068,0,0,1,.346-1.368l.577-1.843,1.17,0,.573,1.79c.187.631.314,1.107.376,1.425h.02c.076-.382.183-.84.324-1.368l.547-1.841,1.246,0Z" transform="translate(-97.681 -200.901)" fill="#040505"/>
    <path id="Path_41" data-name="Path 41" d="M169.239,207.91l-1.324,0-.677-2.1c-.1-.352-.189-.709-.265-1.065h-.01c-.078.36-.187.756-.324,1.188l-.6,1.967-1.258,0-1.431-4.73,1.334,0,.5,1.789q.308,1.176.366,1.425h.01q.1-.546.346-1.368l.577-1.841,1.17,0,.575,1.79q.281.947.376,1.425h.02c.074-.382.181-.84.322-1.368l.549-1.841,1.244,0Z" transform="translate(-92.992 -200.887)" fill="#040505"/>
    <path id="Path_42" data-name="Path 42" d="M170.116,207.962a5.448,5.448,0,0,1,.048-.8l-.01-.008a1.482,1.482,0,0,1-1.511.9,1.313,1.313,0,0,1-1-.388,1.343,1.343,0,0,1-.35-.961,1.357,1.357,0,0,1,.748-1.244,4.024,4.024,0,0,1,1.987-.4v-.171a.868.868,0,0,0-.187-.629.9.9,0,0,0-.655-.2,3.641,3.641,0,0,0-1.431.32l-.2-.934a4.817,4.817,0,0,1,1.788-.315,2.1,2.1,0,0,1,1.5.44,1.638,1.638,0,0,1,.4,1.228l-.006,1.949c0,.466.012.87.034,1.216Zm-.088-2.1c-1.039,0-1.561.235-1.563.711a.533.533,0,0,0,.151.39.553.553,0,0,0,.418.163.884.884,0,0,0,.717-.354,1.225,1.225,0,0,0,.277-.784Z" transform="translate(-89.081 -200.923)" fill="#040505"/>
    <path id="Path_43" data-name="Path 43" d="M172.516,208.184a4.078,4.078,0,0,1-1.011,1.664,2.07,2.07,0,0,1-1.371.432,3.407,3.407,0,0,1-.665-.066l.147-1.049a1.919,1.919,0,0,0,.6.1q.752,0,1.075-.93l.155-.418-1.738-4.732,1.362,0L171.7,205c.137.432.259.866.366,1.306h.01q.158-.639.458-1.5l.567-1.6,1.3,0Z" transform="translate(-86.928 -200.869)" fill="#040505"/>
  </g>
  <g id="Group_5" data-name="Group 5">
    <path id="Path_44" data-name="Path 44" d="M112.124,200.876q-2.648-.006-2.641-2.289a2.453,2.453,0,0,1,.651-1.752,2.534,2.534,0,0,1,1.937-.733,1.991,1.991,0,0,1,2.223,2.281l-.008,2.5Zm-1.427-5.6a.7.7,0,0,1,0-.951.628.628,0,0,1,.464-.2.663.663,0,0,1,.659.679.665.665,0,0,1-.189.474.637.637,0,0,1-.474.2A.617.617,0,0,1,110.7,195.281Zm2.323,3.257q0-1.4-1.053-1.407a1.077,1.077,0,0,0-.866.376,1.421,1.421,0,0,0-.316.952c0,.926.492,1.387,1.483,1.391l.748,0Zm-.681-3.253a.656.656,0,0,1-.187-.474.671.671,0,0,1,.189-.478.629.629,0,0,1,.464-.2.61.61,0,0,1,.464.2.652.652,0,0,1,.187.476.663.663,0,0,1-.191.474.614.614,0,0,1-.464.2A.622.622,0,0,1,112.339,195.285Z" transform="translate(-109.482 -194.116)" fill="#040505"/>
    <path id="Path_45" data-name="Path 45" d="M112.471,198.924l2.934.01a2.758,2.758,0,0,0-2.323-2.771l.316-1.091a4.664,4.664,0,0,1,2.357,1.31,4.051,4.051,0,0,1,.914,2.556l.647,0,0,1.027-4.845-.014Z" transform="translate(-106.525 -193.183)" fill="#040505"/>
    <path id="Path_46" data-name="Path 46" d="M114.83,197.014l2.91.01,0,1.027-2.91-.008Z" transform="translate(-104.188 -191.259)" fill="#040505"/>
    <path id="Path_47" data-name="Path 47" d="M116.235,198.816l1.859.006.01-3.619,1.3,0-.014,4.648-3.161-.01Zm1.3,2.988a.646.646,0,0,1-.474.2.62.62,0,0,1-.462-.2.644.644,0,0,1-.187-.476.661.661,0,0,1,.189-.474.62.62,0,0,1,.464-.2.644.644,0,0,1,.474.2.661.661,0,0,1,.185.478A.65.65,0,0,1,117.539,201.8Zm1.632.006a.636.636,0,0,1-.466.2.621.621,0,0,1-.462-.2.693.693,0,0,1,0-.951.646.646,0,0,1,.926,0,.666.666,0,0,1,.187.478A.673.673,0,0,1,119.171,201.81Z" transform="translate(-102.795 -193.053)" fill="#040505"/>
    <path id="Path_48" data-name="Path 48" d="M118.418,198.942l2.934.008a2.761,2.761,0,0,0-2.323-2.771l.317-1.089a4.635,4.635,0,0,1,2.357,1.31,4.061,4.061,0,0,1,.914,2.554l.647,0,0,1.029-4.845-.016Z" transform="translate(-100.634 -193.165)" fill="#040505"/>
    <path id="Path_49" data-name="Path 49" d="M120.777,197.032l2.91.008,0,1.029-2.91-.01Z" transform="translate(-98.297 -191.241)" fill="#040505"/>
    <path id="Path_50" data-name="Path 50" d="M122.183,197.036l2.91.008,0,1.029-2.91-.008Z" transform="translate(-96.905 -191.237)" fill="#040505"/>
    <path id="Path_51" data-name="Path 51" d="M123.589,198.866l3.828.012a6.783,6.783,0,0,0,.05-.752,1.986,1.986,0,0,0-.43-1.419,2.026,2.026,0,0,0-1.5-.484,8.006,8.006,0,0,0-1.135.08l0-1.019a9.553,9.553,0,0,1,1.264-.086,3.3,3.3,0,0,1,2.381.734,2.86,2.86,0,0,1,.715,2.15,11.35,11.35,0,0,1-.175,1.827l-5-.014Zm1.853,3a.678.678,0,0,1,0-.967.653.653,0,0,1,.478-.2.664.664,0,0,1,.482.2.652.652,0,0,1,.2.484.681.681,0,0,1-1.164.482Z" transform="translate(-95.512 -193.059)" fill="#040505"/>
    <path id="Path_52" data-name="Path 52" d="M130.255,200.928q-2.648-.006-2.643-2.3a2.437,2.437,0,0,1,.635-1.726,2.59,2.59,0,0,1,1.995-.748,5.818,5.818,0,0,1,2.064.35l-.01,3.4.965,0,0,1.029Zm-1.425-5.6a.648.648,0,0,1-.185-.476.664.664,0,0,1,.187-.476.652.652,0,0,1,.938,0,.658.658,0,0,1,.185.476.668.668,0,0,1-.187.474.637.637,0,0,1-.476.2A.612.612,0,0,1,128.83,195.333Zm2.208,2.032a2.177,2.177,0,0,0-.94-.181,1.068,1.068,0,0,0-.864.374,1.414,1.414,0,0,0-.319.953q0,1.385,1.483,1.389l.631,0Zm-.565-2.028a.647.647,0,0,1-.189-.474.665.665,0,0,1,.191-.476.635.635,0,0,1,.926,0,.693.693,0,0,1,0,.952.611.611,0,0,1-.462.2A.6.6,0,0,1,130.472,195.337Z" transform="translate(-91.523 -194.063)" fill="#040505"/>
    <path id="Path_53" data-name="Path 53" d="M130.379,197.06l2.91.008,0,1.029-2.908-.008Z" transform="translate(-88.784 -191.214)" fill="#040505"/>
    <path id="Path_54" data-name="Path 54" d="M131.786,197.064l2.908.01,0,1.027-2.91-.008Z" transform="translate(-87.392 -191.21)" fill="#040505"/>
    <path id="Path_55" data-name="Path 55" d="M133.191,199.908l.416,0a3.346,3.346,0,0,1,.6.052,1.835,1.835,0,0,1-.45-1.334,2.38,2.38,0,0,1,.7-1.764,2.464,2.464,0,0,1,1.819-.693,2.346,2.346,0,0,1,1.676.567,2.3,2.3,0,0,1,.617,1.742,1.837,1.837,0,0,1-.577,1.491,6.146,6.146,0,0,1,.75-.046h.528l0,1.029-6.079-.018Zm1.726-4.558a.65.65,0,0,1-.189-.474.666.666,0,0,1,.193-.478.62.62,0,0,1,.464-.2.613.613,0,0,1,.468.2.644.644,0,0,1,.191.478.656.656,0,0,1-.193.472.632.632,0,0,1-.47.2A.622.622,0,0,1,134.917,195.35Zm2.022,4.228a1.528,1.528,0,0,0,.32-1.033q0-1.341-1.079-1.344a1.017,1.017,0,0,0-.766.311,1.379,1.379,0,0,0-.35,1.009q-.006,1.394,1.091,1.4A.981.981,0,0,0,136.939,199.578Zm-.38-4.224a.643.643,0,0,1-.193-.474.654.654,0,0,1,.2-.476.616.616,0,0,1,.464-.2.641.641,0,0,1,.464.2.662.662,0,0,1,.185.478.673.673,0,0,1-.189.474.627.627,0,0,1-.464.2A.612.612,0,0,1,136.559,195.354Z" transform="translate(-85.998 -194.046)" fill="#040505"/>
    <path id="Path_56" data-name="Path 56" d="M136.17,197.077l2.908.008,0,1.029-2.91-.008Z" transform="translate(-83.049 -191.197)" fill="#040505"/>
    <path id="Path_57" data-name="Path 57" d="M137.574,197.081l2.908.01,0,1.027-2.908-.008Z" transform="translate(-81.656 -191.193)" fill="#040505"/>
    <path id="Path_58" data-name="Path 58" d="M138.982,198.883l1.857.006.01-3.619,1.3,0-.014,4.648-3.161-.01Zm1.3,2.988a.649.649,0,0,1-.474.2.624.624,0,0,1-.464-.2.658.658,0,0,1-.185-.476.668.668,0,0,1,.187-.474.627.627,0,0,1,.466-.2.648.648,0,0,1,.474.2.669.669,0,0,1,.185.478A.658.658,0,0,1,140.286,201.871Zm1.63.006a.627.627,0,0,1-.462.2.616.616,0,0,1-.464-.2.656.656,0,0,1-.187-.478.665.665,0,0,1,.189-.474.626.626,0,0,1,.466-.2.614.614,0,0,1,.46.2.647.647,0,0,1,.187.478A.657.657,0,0,1,141.916,201.877Z" transform="translate(-80.264 -192.987)" fill="#040505"/>
    <path id="Path_59" data-name="Path 59" d="M140.889,202.331l.1-1.037a2.92,2.92,0,0,0,.8.117.986.986,0,0,0,.786-.287,1.651,1.651,0,0,0,.287-1.091l.014-4.758,1.3,0-.01,3.619.969,0,0,1.029-.971,0v.04a2.171,2.171,0,0,1-2.448,2.464A3.643,3.643,0,0,1,140.889,202.331Z" transform="translate(-78.371 -192.981)" fill="#040505"/>
    <path id="Path_60" data-name="Path 60" d="M142.951,197.1l2.908.008,0,1.029-2.91-.008Z" transform="translate(-76.332 -191.177)" fill="#040505"/>
    <path id="Path_61" data-name="Path 61" d="M144.355,197.1l2.908.01,0,1.027-2.908-.008Z" transform="translate(-74.939 -191.173)" fill="#040505"/>
    <path id="Path_62" data-name="Path 62" d="M145.763,200.059l1.206,0,.018-5.94,1.3,0-.006,2.572a9.2,9.2,0,0,1-.111,1.461h.01a2.758,2.758,0,0,1,1.027-1.368,2.535,2.535,0,0,1,1.479-.464,2,2,0,0,1,1.561.6,2.37,2.37,0,0,1,.526,1.648,2.512,2.512,0,0,1-.44,1.5l1.145,0,0,1.027-7.717-.022Zm4.093.012c1.049,0,1.573-.468,1.577-1.417q0-1.284-1.005-1.288a1.766,1.766,0,0,0-1.405.826,4.024,4.024,0,0,0-.758,1.875Z" transform="translate(-73.547 -194.123)" fill="#040505"/>
    <path id="Path_63" data-name="Path 63" d="M149.53,197.116l2.908.01,0,1.027-2.91-.008Z" transform="translate(-69.815 -191.158)" fill="#040505"/>
    <path id="Path_64" data-name="Path 64" d="M150.937,197.121l2.908.008,0,1.027-2.908-.008Z" transform="translate(-68.421 -191.153)" fill="#040505"/>
    <path id="Path_65" data-name="Path 65" d="M152.341,198.924l1.385,0,.012-3.619,1.3,0-.014,4.646-2.687-.008Zm.812,3a.687.687,0,0,1,0-.967.664.664,0,0,1,.482-.2.671.671,0,0,1,.482.2.654.654,0,0,1,.2.484.646.646,0,0,1-.207.48.639.639,0,0,1-.482.2A.662.662,0,0,1,153.153,201.922Z" transform="translate(-67.029 -192.948)" fill="#040505"/>
    <path id="Path_66" data-name="Path 66" d="M158.9,201.119a4.2,4.2,0,0,1-2.823-.794,2.705,2.705,0,0,1-.8-2.14,4.508,4.508,0,0,1,.261-1.555l1.393-.221a3.9,3.9,0,0,0-.34,1.628,1.956,1.956,0,0,0,.531,1.547,2.865,2.865,0,0,0,1.913.508l2.066.006.018-5.94,1.308,0-.018,5.94.985,0,0,1.029Zm-1.127-4.813a3.139,3.139,0,0,1,.557.038.381.381,0,0,1-.187-.386.977.977,0,0,1,.33-.76,1.6,1.6,0,0,1,1.1-.338,4.455,4.455,0,0,1,.585.048l-.123.738a2.594,2.594,0,0,0-.494-.048c-.318,0-.476.109-.478.334,0,.251.227.378.683.38l.561,0,0,.738-2.538-.008Z" transform="translate(-64.119 -194.088)" fill="#040505"/>
    <path id="Path_67" data-name="Path 67" d="M159.282,197.145l2.908.008,0,1.029-2.908-.008Z" transform="translate(-60.153 -191.129)" fill="#040505"/>
    <path id="Path_68" data-name="Path 68" d="M160.69,197.149l2.908.01,0,1.027-2.91-.008Z" transform="translate(-58.76 -191.126)" fill="#040505"/>
    <path id="Path_69" data-name="Path 69" d="M162.094,200l1.385,0,.012-3.617,1.3,0-.014,4.648-2.687-.008Zm.579-4.562a.655.655,0,0,1-.189-.474.673.673,0,0,1,.191-.476.628.628,0,0,1,.464-.2.642.642,0,0,1,.472.2.693.693,0,0,1,0,.952.629.629,0,0,1-.472.2A.6.6,0,0,1,162.673,195.433Zm1.638.006a.664.664,0,0,1-.185-.476.675.675,0,0,1,.189-.476.622.622,0,0,1,.464-.2.613.613,0,0,1,.464.2.691.691,0,0,1,0,.95.647.647,0,0,1-.928,0Z" transform="translate(-57.367 -193.964)" fill="#040505"/>
    <path id="Path_70" data-name="Path 70" d="M164.25,194.176l1.3,0-.016,5.94.989,0,0,1.029-2.291-.008Z" transform="translate(-55.25 -194.071)" fill="#040505"/>
    <path id="Path_71" data-name="Path 71" d="M165.311,197.163l2.908.008,0,1.029-2.908-.01Z" transform="translate(-54.183 -191.112)" fill="#040505"/>
    <path id="Path_72" data-name="Path 72" d="M166.716,197.167l2.908.008,0,1.029-2.91-.008Z" transform="translate(-52.791 -191.108)" fill="#040505"/>
    <path id="Path_73" data-name="Path 73" d="M168.123,197.171l2.908.008,0,1.029-2.91-.008Z" transform="translate(-51.397 -191.104)" fill="#040505"/>
    <path id="Path_74" data-name="Path 74" d="M169.527,197.175l2.908.01,0,1.027-2.908-.008Z" transform="translate(-50.004 -191.1)" fill="#040505"/>
    <path id="Path_75" data-name="Path 75" d="M170.935,199.162l.492,0a.814.814,0,0,0,.687-.249,1.664,1.664,0,0,0,.211-.973l0-1.8,1.3,0-.006,1.829a2.639,2.639,0,0,0,.117.971.55.55,0,0,0,.557.3c.53,0,.794-.42.8-1.26l.008-2.235,1.254,0-.008,2.482a.913.913,0,0,0,.241.762,1.639,1.639,0,0,0,.924.181l.257,0a8.9,8.9,0,0,0,.076-1.186,11.894,11.894,0,0,0-.281-2.651l1.274-.169a11.76,11.76,0,0,1,.311,2.735,16.116,16.116,0,0,1-.157,2.3l-1.632,0a3.929,3.929,0,0,1-1.2-.139,1.127,1.127,0,0,1-.629-.547,1.471,1.471,0,0,1-1.493.754,1.21,1.21,0,0,1-1.31-.77,1.288,1.288,0,0,1-1.322.685l-.482,0Z" transform="translate(-48.612 -193.079)" fill="#040505"/>
    <path id="Path_76" data-name="Path 76" d="M174.945,202.433l.1-1.039a3.029,3.029,0,0,0,.8.119.986.986,0,0,0,.784-.289,1.648,1.648,0,0,0,.289-1.089l.014-4.759,1.3,0-.014,4.686a2.171,2.171,0,0,1-2.448,2.464A3.632,3.632,0,0,1,174.945,202.433Z" transform="translate(-44.635 -192.882)" fill="#040505"/>
    <path id="Path_77" data-name="Path 77" d="M177.155,202.446l.086-1.067a7.154,7.154,0,0,0,1.539.175c1.143,0,1.716-.434,1.72-1.308V200.1l-.772,0q-2.648-.009-2.644-2.3a2.439,2.439,0,0,1,.633-1.726,2.593,2.593,0,0,1,2-.746,5.754,5.754,0,0,1,2.062.35l-.01,3.4.967,0,0,1.027-.965,0v.018a2.228,2.228,0,0,1-.727,1.746,3.42,3.42,0,0,1-2.375.717A8.88,8.88,0,0,1,177.155,202.446Zm3.354-5.918a2.208,2.208,0,0,0-.94-.181,1.074,1.074,0,0,0-.866.376,1.4,1.4,0,0,0-.316.952c0,.926.49,1.387,1.483,1.391l.631,0Z" transform="translate(-42.517 -192.937)" fill="#040505"/>
    <path id="Path_78" data-name="Path 78" d="M179.849,197.206l2.908.008,0,1.029-2.908-.01Z" transform="translate(-39.782 -191.069)" fill="#040505"/>
    <path id="Path_79" data-name="Path 79" d="M181.254,197.21l2.91.008,0,1.029-2.908-.01Z" transform="translate(-38.388 -191.065)" fill="#040505"/>
    <path id="Path_80" data-name="Path 80" d="M182.662,197.214l2.908.008,0,1.029-2.91-.008Z" transform="translate(-36.995 -191.061)" fill="#040505"/>
    <path id="Path_81" data-name="Path 81" d="M184.066,197.218l2.91.008,0,1.029-2.908-.008Z" transform="translate(-35.602 -191.057)" fill="#040505"/>
    <path id="Path_82" data-name="Path 82" d="M185.474,197.222l2.908.008,0,1.029-2.91-.008Z" transform="translate(-34.21 -191.053)" fill="#040505"/>
    <path id="Path_83" data-name="Path 83" d="M186.878,197.226l2.91.01,0,1.027-2.908-.008Z" transform="translate(-32.817 -191.049)" fill="#040505"/>
    <path id="Path_84" data-name="Path 84" d="M188.285,200.307l2.934.01a2.78,2.78,0,0,0-2.415-2.8l0-.955,3.925-2.44,0,1.294-2.417,1.445a3.778,3.778,0,0,1,2.18,3.824l0,.661-4.208-.012Z" transform="translate(-31.423 -194.122)" fill="#040505"/>
  </g>
</svg>
