<svg xmlns="http://www.w3.org/2000/svg" width="95.606" height="107.734" viewBox="0 0 95.606 107.734">
  <g id="Group_54987" data-name="Group 54987" transform="translate(0 0)">
    <path id="Path_1" data-name="Path 1" d="M196.622,122.83a13.5,13.5,0,0,1-19,1.252c-7.634-6.714-19.438-8.173-29.8-3.78,13.321-17.115,28.875-21.992,37.341-23.391a49.278,49.278,0,0,1,10.21,6.915A13.461,13.461,0,0,1,196.622,122.83Z" transform="translate(-104.357 -90.951)" fill="#42b39a"/>
    <path id="Path_2" data-name="Path 2" d="M196.622,122.83a13.5,13.5,0,0,1-19,1.252c-7.634-6.714-19.438-8.173-29.8-3.78,13.321-17.115,28.875-21.992,37.341-23.391a49.278,49.278,0,0,1,10.21,6.915A13.461,13.461,0,0,1,196.622,122.83Z" transform="translate(-104.357 -90.951)" fill="#fc8e0b"/>
    <path id="Path_3" data-name="Path 3" d="M195.224,99.877c-8.466,1.4-24.02,6.276-37.341,23.391a11.516,11.516,0,0,0-1.423.611c-4.16,1.989-13.062,7.538-14.79,19.418-6.943-19.213-3.36-34.28-.454-41.848h.04c1.155-.651,2.349-1.262,3.543-1.835C161.129,91.815,180.091,92.139,195.224,99.877Z" transform="translate(-114.42 -93.917)" fill="#42b39a"/>
    <path id="Path_4" data-name="Path 4" d="M165.233,166.51c-22.723-3.49-34.608-15.949-39.244-22.115v-.04A51.814,51.814,0,0,1,152.78,97.7c-2.906,7.568-6.489,22.635.454,41.848a29.757,29.757,0,0,0-.285,5.655C153.453,156.9,159.856,163.225,165.233,166.51Z" transform="translate(-125.985 -90.169)" fill="#112459"/>
    <path id="Path_5" data-name="Path 5" d="M193.651,145.011c-13.514,17.5-29.375,22.376-37.841,23.7h-.04c-17.82-8.631-28.887-25.509-29.751-45.59-.036-.655-.034-1.308-.032-1.961,4.636,6.167,16.522,18.626,39.244,22.115a31.254,31.254,0,0,0,3.34,1.74A30.618,30.618,0,0,0,193.651,145.011Z" transform="translate(-125.984 -66.933)" fill="#fc8e0b"/>
    <path id="Path_6" data-name="Path 6" d="M201.451,153.669a54.429,54.429,0,0,1-35.114,12.358A58.721,58.721,0,0,1,142.85,161a17.176,17.176,0,0,1-1.881-.928c8.466-1.322,24.327-6.2,37.841-23.7A22.336,22.336,0,0,0,184.2,133a13.459,13.459,0,0,1,17.246,20.668Z" transform="translate(-111.143 -58.292)" fill="#42b39a"/>
    <g id="Group_1" data-name="Group 1" transform="translate(35.813 48.696)">
      <circle id="Ellipse_1" data-name="Ellipse 1" cx="5.11" cy="5.11" r="5.11" fill="#112459"/>
      <circle id="Ellipse_2" data-name="Ellipse 2" cx="5.11" cy="5.11" r="5.11" transform="translate(14.526 0.043)" fill="#42b39a"/>
      <circle id="Ellipse_3" data-name="Ellipse 3" cx="5.11" cy="5.11" r="5.11" transform="translate(29.053 0.085)" fill="#fc8e0b"/>
    </g>
  </g>
</svg>
