<svg id="instagram_1_" data-name="instagram (1)" xmlns="http://www.w3.org/2000/svg" width="24" height="24" viewBox="0 0 24 24">
  <path id="Path_46171" data-name="Path 46171" d="M211.785,209.393A2.393,2.393,0,1,1,209.393,207,2.393,2.393,0,0,1,211.785,209.393Zm0,0" transform="translate(-197.393 -197.393)" fill="#707070"/>
  <path id="Path_46172" data-name="Path 46172" d="M146.965,137.14a2.377,2.377,0,0,0-1.362-1.362,3.971,3.971,0,0,0-1.333-.247c-.757-.035-.984-.042-2.9-.042s-2.144.007-2.9.042a3.974,3.974,0,0,0-1.333.247,2.378,2.378,0,0,0-1.362,1.362,3.972,3.972,0,0,0-.247,1.333c-.035.757-.042.984-.042,2.9s.007,2.143.042,2.9a3.971,3.971,0,0,0,.247,1.333,2.377,2.377,0,0,0,1.362,1.362,3.966,3.966,0,0,0,1.333.247c.757.035.984.042,2.9.042s2.144-.007,2.9-.042a3.966,3.966,0,0,0,1.333-.247,2.377,2.377,0,0,0,1.362-1.362,3.976,3.976,0,0,0,.247-1.333c.035-.757.042-.984.042-2.9s-.007-2.144-.042-2.9a3.966,3.966,0,0,0-.247-1.333Zm-5.6,7.919a3.686,3.686,0,1,1,3.686-3.686A3.686,3.686,0,0,1,141.369,145.059ZM145.2,138.4a.861.861,0,1,1,.861-.861A.861.861,0,0,1,145.2,138.4Zm0,0" transform="translate(-129.369 -129.373)" fill="#707070"/>
  <path id="Path_46173" data-name="Path 46173" d="M12,0A12,12,0,1,0,24,12,12,12,0,0,0,12,0Zm6.849,14.841a5.056,5.056,0,0,1-.32,1.673,3.523,3.523,0,0,1-2.015,2.015,5.059,5.059,0,0,1-1.672.32c-.735.034-.97.042-2.841.042s-2.106-.008-2.841-.042a5.059,5.059,0,0,1-1.672-.32,3.523,3.523,0,0,1-2.015-2.015,5.054,5.054,0,0,1-.32-1.672c-.034-.735-.042-.97-.042-2.841s.008-2.106.042-2.841a5.056,5.056,0,0,1,.32-1.673A3.526,3.526,0,0,1,7.486,5.471a5.06,5.06,0,0,1,1.673-.32c.735-.034.97-.042,2.841-.042s2.106.008,2.841.042a5.061,5.061,0,0,1,1.673.32,3.524,3.524,0,0,1,2.015,2.015,5.055,5.055,0,0,1,.32,1.673c.034.735.041.97.041,2.841S18.883,14.106,18.849,14.841Zm0,0" fill="#707070"/>
</svg>
