<svg xmlns="http://www.w3.org/2000/svg" width="18.652" height="15.576" viewBox="0 0 18.652 15.576">
  <g id="left-quote" transform="translate(18.652 15.576) rotate(180)">
    <g id="Group_54606" data-name="Group 54606" transform="translate(0 0)">
      <path id="Path_46175" data-name="Path 46175" d="M5.97,7.059A4.942,4.942,0,0,0,4.6,6.86a4.292,4.292,0,0,0-1.712.351c.43-1.576,1.464-4.295,3.524-4.6a.489.489,0,0,0,.4-.352l.45-1.61a.489.489,0,0,0-.4-.616A3.419,3.419,0,0,0,6.4,0C3.928,0,1.479,2.581.446,6.275c-.607,2.168-.784,5.427.71,7.478a4.46,4.46,0,0,0,3.625,1.822H4.8A4.339,4.339,0,0,0,5.97,7.059Z" transform="translate(0 0)" fill="#535353"/>
      <path id="Path_46176" data-name="Path 46176" d="M8.578,9.108A4.349,4.349,0,0,0,5.97,7.059,4.942,4.942,0,0,0,4.6,6.86a4.293,4.293,0,0,0-1.713.351c.43-1.576,1.464-4.295,3.524-4.6a.49.49,0,0,0,.4-.352l.45-1.61a.489.489,0,0,0-.4-.616A3.415,3.415,0,0,0,6.4,0C3.928,0,1.479,2.581.446,6.275c-.606,2.168-.784,5.427.71,7.478a4.46,4.46,0,0,0,3.625,1.822H4.8A4.339,4.339,0,0,0,8.578,9.108Z" transform="translate(9.514 0)" fill="#535353"/>
    </g>
  </g>
</svg>
