<svg xmlns="http://www.w3.org/2000/svg" width="80" height="79.998" viewBox="0 0 80 79.998">
  <g id="Page-1" transform="translate(0.002)">
    <g id="_007---Autism" data-name="007---Autism" transform="translate(-0.002 0)">
      <path id="Shape" d="M2.963,49.853a9.636,9.636,0,0,0,1.384.8c.576.295,1.543.788,1.611,1.133A2.317,2.317,0,0,1,5.8,53.137c-.2.427-.407.793-.587,1.109-.488.863-1.305,2.308-.073,3.315.288.267.785.652,1.239,1a3.359,3.359,0,0,0-.433,1.924A1.925,1.925,0,0,0,6.736,61.8c.3.208.612.389.923.567.789.448,1.1.657,1.2,1.076a3.673,3.673,0,0,1-.133,1.6c-.079.356-.155.713-.2,1.067A7.934,7.934,0,0,0,8.964,69.7a4.994,4.994,0,0,0,4.717,3.633,5.361,5.361,0,0,0,1.093-.116,101.174,101.174,0,0,0,11.241-3.364c3,1.763,4.9,7.122,5.4,9.134A1.333,1.333,0,0,0,32.706,80L66.172,79.9a1.333,1.333,0,0,0,1.269-1.733,10.288,10.288,0,0,0-1.351-2.533,12.445,12.445,0,0,1-.863-1.443A25.126,25.126,0,0,1,63.723,70.4a44.73,44.73,0,0,1-1.577-7.885,22.516,22.516,0,0,1,.867-9.184h3.32a4,4,0,0,0,4-4V32A1.333,1.333,0,0,0,69,30.666H63.618A4.848,4.848,0,0,0,63.666,30a4.667,4.667,0,0,0-9.333,0,4.849,4.849,0,0,0,.048.667H50.333V26.619a4.718,4.718,0,0,0,2.192-.207,4.668,4.668,0,0,0-2.192-9.032V12A1.333,1.333,0,0,0,49,10.666H31.666a4,4,0,0,0-4,4V49.332a4,4,0,0,0,4,4H60.212a25.216,25.216,0,0,0-.711,9.506,47.54,47.54,0,0,0,1.677,8.36,27.946,27.946,0,0,0,1.655,4.173,14.79,14.79,0,0,0,1.033,1.743l.089.133-30.242.084a21.239,21.239,0,0,0-4.693-8.514l1.2-.42c.893-.312,1.567-.547,1.912-.657,5.712-1.807,8.568-4.408,8.49-7.733a1.334,1.334,0,1,0-2.667.063c.032,1.372-1.092,3.373-6.635,5.127-.361.116-1.057.359-1.981.681-.991.347-2.251.787-3.64,1.259h-.009A103.742,103.742,0,0,1,14.226,70.6a2.359,2.359,0,0,1-2.736-1.777,5.3,5.3,0,0,1-.313-2.379c.035-.28.1-.557.16-.836a5.836,5.836,0,0,0,.116-2.837,4.423,4.423,0,0,0-2.469-2.728l-.276-.157a5,5,0,0,1,.513-.824,1.333,1.333,0,0,0-.255-1.9c-.32-.235-1.075-.8-1.627-1.245.064-.116.133-.244.2-.36.209-.367.448-.793.681-1.287a5,5,0,0,0,.356-2.984c-.32-1.627-1.879-2.424-3.015-3.005a7.72,7.72,0,0,1-1.1-.639A5.779,5.779,0,0,1,3.667,47c0-.2.217-.693,1.233-1.929a53.827,53.827,0,0,0,6.107-9.914,3.967,3.967,0,0,0,.513-1.8,4.667,4.667,0,0,0-1.948-3.333c-.533-.495-1.047-.961-1.107-1.4a2.4,2.4,0,0,1,.208-.912c.217-.572.468-1.132.72-1.693A19.478,19.478,0,0,0,10.7,22.5l.133-.568A33.334,33.334,0,0,1,11.918,18,22.865,22.865,0,0,1,16.7,10.185c2.551-2.7,6.565-4.608,11.952-5.679a86.514,86.514,0,0,1,12.505-1.8A28.684,28.684,0,0,1,58.332,7.376V8.666a1.333,1.333,0,0,0,2.133,1.067,2.056,2.056,0,0,1,2.756.353,2.011,2.011,0,0,1,.385,1.724,1.977,1.977,0,0,1-1.275,1.409,2.013,2.013,0,0,1-1.875-.287A1.333,1.333,0,0,0,58.332,14v6A2.667,2.667,0,0,0,61,22.666h6a1.333,1.333,0,0,0,1.067-2.133,2,2,0,1,1,3.2,0,1.333,1.333,0,0,0,1.067,2.133h7.333A1.333,1.333,0,0,0,81,21.333V4a4,4,0,0,0-4-4H59.666a1.333,1.333,0,0,0-1.333,1.333V4.183A31.583,31.583,0,0,0,41.023.041a88.991,88.991,0,0,0-12.9,1.851c-6.012,1.2-10.381,3.308-13.364,6.46a25.546,25.546,0,0,0-5.348,8.724,36.165,36.165,0,0,0-1.181,4.257L8.1,21.9a17.4,17.4,0,0,1-1.14,3.037c-.267.608-.544,1.216-.783,1.845a4.452,4.452,0,0,0-.352,2.229,5.1,5.1,0,0,0,1.943,2.981c.652.6,1.08,1.019,1.085,1.385a2.194,2.194,0,0,1-.227.579,51.581,51.581,0,0,1-5.833,9.481c-.967,1.176-1.98,2.548-1.767,3.921A4.074,4.074,0,0,0,2.963,49.853Zm27.37-35.187a1.333,1.333,0,0,1,1.333-1.333h16v6A1.333,1.333,0,0,0,49.8,20.4a2.056,2.056,0,0,1,2.756.353,2.011,2.011,0,0,1,.385,1.724,1.977,1.977,0,0,1-1.275,1.409,2.013,2.013,0,0,1-1.879-.292,1.333,1.333,0,0,0-2.121,1.072v6H43.621a4.741,4.741,0,0,0-.208-2.189A4.667,4.667,0,0,0,34.333,30a4.849,4.849,0,0,0,.048.667H30.333Zm0,34.666v-16h6A1.333,1.333,0,0,0,37.4,31.2a2,2,0,0,1,2.079-3.141,1.969,1.969,0,0,1,1.408,1.275,2,2,0,0,1-.293,1.877,1.333,1.333,0,0,0,1.073,2.123h6V37.38a4.667,4.667,0,1,0,0,9.237v4.048h-16A1.333,1.333,0,0,1,30.333,49.332Zm19.26-5.867a1.341,1.341,0,0,0-1.4.133,2,2,0,1,1,0-3.2,1.333,1.333,0,0,0,2.133-1.067v-6h6A1.333,1.333,0,0,0,57.394,31.2a2,2,0,1,1,3.2,0,1.333,1.333,0,0,0,1.067,2.133h6.005v16a1.333,1.333,0,0,1-1.333,1.333h-16v-6A1.333,1.333,0,0,0,49.593,43.466ZM61,2.667H77A1.333,1.333,0,0,1,78.332,4V20H74.284a4.849,4.849,0,0,0,.048-.667,4.667,4.667,0,0,0-9.333,0,4.849,4.849,0,0,0,.048.667H61V15.953a4.718,4.718,0,0,0,2.192-.207A4.668,4.668,0,0,0,61,6.714Z" transform="translate(-0.998 0)" fill="#707070"/>
      <path id="Shape-2" data-name="Shape" d="M12.166,17.791l.1-.434a22.464,22.464,0,0,1,.674-2.471,13.066,13.066,0,0,1,2.751-4.5,8.442,8.442,0,0,1,2.72-1.832,1,1,0,1,0-.818-1.824,10.383,10.383,0,0,0-3.357,2.284A15.045,15.045,0,0,0,11.061,14.2a23.994,23.994,0,0,0-.747,2.711l-.1.44a1,1,0,0,0,.755,1.2.99.99,0,0,0,.221.025A1,1,0,0,0,12.166,17.791Z" transform="translate(2.594)" fill="#707070"/>
      <circle id="Oval" cx="1" cy="1" r="1" transform="translate(8.002 26.896)" fill="#707070"/>
    </g>
  </g>
</svg>
