<svg id="portfolio" xmlns="http://www.w3.org/2000/svg" width="80.046" height="80" viewBox="0 0 80.046 80">
  <g id="Group_95" data-name="Group 95">
    <path id="Path_192" data-name="Path 192" d="M182.853,50.854H165.523a.834.834,0,0,0,0,1.668h17.329a.834.834,0,0,0,0-1.668Z" transform="translate(-135.223 -45.214)" fill="#707070"/>
    <path id="Path_193" data-name="Path 193" d="M182.853,94.756H165.523a.834.834,0,0,0,0,1.669h17.329a.834.834,0,0,0,0-1.669Z" transform="translate(-135.223 -79.836)" fill="#707070"/>
    <path id="Path_194" data-name="Path 194" d="M192.506,196.293h-4.953v-2.329a5.573,5.573,0,0,0-5.567-5.567h-9.379a5.573,5.573,0,0,0-5.567,5.567v2.329h-4.953a4.5,4.5,0,0,0-4.5,4.5v19.079a4.507,4.507,0,0,0,4.5,4.5h30.418a4.507,4.507,0,0,0,4.5-4.5v-3.615a.834.834,0,1,0-1.668,0v3.615a2.837,2.837,0,0,1-2.834,2.834H162.088a2.837,2.837,0,0,1-2.834-2.834V208.05a7.472,7.472,0,0,0,5.516,2.77v1.274a3.049,3.049,0,1,0,6.1,0v-1.268h12.858v1.268a3.049,3.049,0,1,0,6.1,0V210.82a7.472,7.472,0,0,0,5.516-2.77v4.309a.834.834,0,1,0,1.668,0V200.795A4.5,4.5,0,0,0,192.506,196.293Zm-23.8-2.329a3.9,3.9,0,0,1,3.9-3.9h9.379a3.9,3.9,0,0,1,3.9,3.9v2.329h-1.737v-2.329a2.163,2.163,0,0,0-2.161-2.161h-9.379a2.163,2.163,0,0,0-2.161,2.161v2.329h-1.737Zm3.406,2.329v-2.329a.493.493,0,0,1,.492-.492h9.379a.493.493,0,0,1,.493.492v2.329Zm-2.915,15.8a1.38,1.38,0,1,1-2.761,0v-2.982a1.38,1.38,0,0,1,2.761,0Zm18.955,0a1.38,1.38,0,1,1-2.761,0V210s0-.006,0-.009,0-.006,0-.009v-.871a1.38,1.38,0,1,1,2.761,0Zm1.668-2.944v-.038a3.049,3.049,0,1,0-6.1,0v.046H170.868v-.046a3.049,3.049,0,1,0-6.1,0v.038a5.819,5.819,0,0,1-5.516-5.8v-2.551a2.833,2.833,0,0,1,2.834-2.834h30.418a2.833,2.833,0,0,1,2.834,2.834v2.551A5.82,5.82,0,0,1,189.824,209.15Z" transform="translate(-116.963 -144.376)" fill="#707070"/>
    <path id="Path_195" data-name="Path 195" d="M24.872,77.8H6.237a3.6,3.6,0,0,1-3.714-3.453V18.026a3.242,3.242,0,0,1,.086-.744H14.085a4.206,4.206,0,0,0,4.346-4.04V2.571a4.022,4.022,0,0,1,.8-.08H61.99A3.6,3.6,0,0,1,65.7,5.944V26.063a1.264,1.264,0,0,0,2.522,0V5.944A6.036,6.036,0,0,0,61.99.146H19.231a6.441,6.441,0,0,0-4.41,1.7L1.826,13.926A5.563,5.563,0,0,0,0,18.026V74.348a6.036,6.036,0,0,0,6.237,5.8H24.872a1.176,1.176,0,1,0,0-2.345ZM15.909,4.149v9.093a1.765,1.765,0,0,1-1.824,1.7H4.306Z" transform="translate(0 -0.146)" fill="#707070"/>
  </g>
</svg>
