<svg xmlns="http://www.w3.org/2000/svg" width="80" height="80" viewBox="0 0 80 80">
  <g id="certificate" transform="translate(0 -34.936)">
    <path id="Path_196" data-name="Path 196" d="M77.266,34.936H2.734A2.978,2.978,0,0,0,0,38.1V49.248a1.18,1.18,0,1,0,2.344,0V38.1a.425.425,0,0,1,.391-.452H77.266a.425.425,0,0,1,.391.452V104.28a.425.425,0,0,1-.391.452H62.248v-2.824H74.035a1.275,1.275,0,0,0,1.172-1.357V86.341a1.18,1.18,0,1,0-2.344,0V99.195H62.248V93.174l.113.011a3.211,3.211,0,0,0,3.021-.75c.837-.971.731-2.374.646-3.5a2.209,2.209,0,0,1,.81-2.314c2.067-1.99,2.105-4.121,0-6.148a2.211,2.211,0,0,1-.81-2.314c.229-3.036-1-4.523-3.667-4.251-1.043.106-1.326-.009-1.991-.939-1.716-2.4-3.558-2.444-5.306,0-.665.93-.948,1.045-1.991.939-2.623-.267-3.9,1.159-3.667,4.251a2.211,2.211,0,0,1-.81,2.314c-2.067,1.99-2.105,4.122,0,6.148a2.211,2.211,0,0,1,.81,2.314c-.246,3.251,1.095,4.509,3.78,4.24V99.2H7.137V43.188H72.863V79.1a1.18,1.18,0,1,0,2.344,0V41.831a1.275,1.275,0,0,0-1.172-1.357H5.965a1.275,1.275,0,0,0-1.172,1.357v58.721a1.275,1.275,0,0,0,1.172,1.357h47.22v2.824H2.734a.425.425,0,0,1-.391-.452V56.123a1.18,1.18,0,1,0-2.344,0V104.28a2.978,2.978,0,0,0,2.734,3.167H53.186v6.143q.25,1.673,1.666,1.23l2.865-1.543,2.865,1.543a1.213,1.213,0,0,0,1.666-1.23v-6.143H77.266A2.978,2.978,0,0,0,80,104.28V38.1a2.978,2.978,0,0,0-2.734-3.167Zm-24.4,55.545c-1.173.12-1.23.047-1.127-1.311a5.044,5.044,0,0,0-1.646-4.638c-.951-.916-.951-1.059,0-1.974A5.044,5.044,0,0,0,51.74,77.92c-.1-1.358-.046-1.43,1.127-1.311a3.8,3.8,0,0,0,4-1.911c.788-1.1.908-1.1,1.7,0a3.805,3.805,0,0,0,4,1.911c1.173-.12,1.23-.047,1.127,1.311a5.044,5.044,0,0,0,1.646,4.638c.951.916.951,1.059,0,1.974a5.043,5.043,0,0,0-1.646,4.637c.1,1.358.046,1.431-1.127,1.311a4.26,4.26,0,0,0-2.306.194,4.964,4.964,0,0,0-1.7,1.717,4.752,4.752,0,0,1-.848,1,4.755,4.755,0,0,1-.848-1,4.964,4.964,0,0,0-1.7-1.717A4.462,4.462,0,0,0,52.868,90.481Zm5.343,20.069a1.028,1.028,0,0,0-.988,0l-1.693.912V94.752a2.435,2.435,0,0,0,4.375,0v16.71Z" transform="translate(0 0)" fill="#707070"/>
    <path id="Path_197" data-name="Path 197" d="M91.119,130.65h40.148a1.165,1.165,0,0,0,0-2.329H91.119A1.165,1.165,0,0,0,91.119,130.65Z" transform="translate(-83.363 -76.404)" fill="#707070"/>
    <path id="Path_198" data-name="Path 198" d="M142.078,175.1a1.17,1.17,0,0,0-1.176-1.165H91.13a1.165,1.165,0,0,0,0,2.329H140.9A1.17,1.17,0,0,0,142.078,175.1Z" transform="translate(-76.016 -113.726)" fill="#707070"/>
    <path id="Path_199" data-name="Path 199" d="M120.293,220.721a1.165,1.165,0,0,0-1.165-1.165H91.12a1.165,1.165,0,0,0,0,2.329h28.009A1.165,1.165,0,0,0,120.293,220.721Z" transform="translate(-81.556 -151.048)" fill="#707070"/>
    <path id="Path_200" data-name="Path 200" d="M107.441,276.693l-1.905,0c-1.222,0-1.894-.325-2.144-1.62-.228-1.183-1.933-1.032-2.246,0-.138.457-.837,1.765-1.448,1.658-.323-.057-.465-.556-.584-.814a9.931,9.931,0,0,1-.548-1.57c-.613-2.257-.735-4.613-1.119-6.913-.222-1.333-2.255-.956-2.288.31a35.637,35.637,0,0,1-2.2,11.79c-.533,1.4,1.718,2.009,2.246.619a32.933,32.933,0,0,0,1.334-4.465,11.81,11.81,0,0,0,.667,1.62,2.771,2.771,0,0,0,3.551,1.541,3.975,3.975,0,0,0,1.424-1.04c1.1,1.271,2.741,1.213,4.271,1.211q3.458,0,6.917-.015a1.165,1.165,0,0,0,0-2.329Q110.406,276.688,107.441,276.693Z" transform="translate(-78.334 -188.176)" fill="#707070"/>
    <path id="Path_201" data-name="Path 201" d="M344.643,283.384a4.549,4.549,0,1,0-4.549-4.549A4.554,4.554,0,0,0,344.643,283.384Zm0-6.768a2.22,2.22,0,1,1-2.22,2.22A2.222,2.222,0,0,1,344.643,276.615Z" transform="translate(-286.912 -195.103)" fill="#707070"/>
  </g>
</svg>
