<svg xmlns="http://www.w3.org/2000/svg" width="80" height="78.099" viewBox="0 0 80 78.099">
  <g id="idea" transform="translate(0 -6.083)">
    <path id="Path_202" data-name="Path 202" d="M11.148,35.55c.412-.952.868-1.874,1.36-2.759a31.261,31.261,0,0,1,2.051-3.233,1.17,1.17,0,0,1,1.9,1.373,29.174,29.174,0,0,0-1.9,2.994c-.3.531-.576,1.076-.837,1.625h4.27a1.169,1.169,0,0,1,1.174,1.169V46.977a7.412,7.412,0,0,1-.655,3.052,10.2,10.2,0,0,1,3.083,1.927A5.192,5.192,0,0,1,23.4,55.742V61.46a1.176,1.176,0,0,1-1.174,1.174H14.944c.385.66.8,1.307,1.231,1.931a28.441,28.441,0,0,0,2.653,3.273,1.17,1.17,0,0,1-1.705,1.6,31.82,31.82,0,0,1-2.87-3.539,31.384,31.384,0,0,1-1.989-3.269H1.174A1.176,1.176,0,0,1,0,61.46V55.742a5.2,5.2,0,0,1,1.785-3.765,10.246,10.246,0,0,1,3.109-1.949,7.412,7.412,0,0,1-.655-3.052V40.24a4.7,4.7,0,0,1,4.691-4.69h2.219Zm62.27,9.66-6.183-2.095L63.191,45.1v1.878a5.114,5.114,0,0,0,10.227,0ZM63.191,42.5l3.384-1.657a1.158,1.158,0,0,1,.957-.1l5.887,1.993v-2.5a2.359,2.359,0,0,0-2.348-2.348H65.534a2.352,2.352,0,0,0-2.343,2.348V42.5ZM6.582,41.1H16.813v-3.2H8.929a2.359,2.359,0,0,0-2.348,2.347V41.1Zm10.231,2.343H6.582v3.539a5.116,5.116,0,0,0,10.232,0V43.438Zm28.3,23.178a8.148,8.148,0,0,1-6.666-1.78,6.135,6.135,0,0,1-3.565.85v2.839a5.116,5.116,0,0,0,10.231,0ZM34.884,63.338a3.775,3.775,0,0,0,2.906-.881l0,0,.027-.027a1.17,1.17,0,0,1,1.648.12,5.819,5.819,0,0,0,5.647,1.705V61.788a2.359,2.359,0,0,0-2.347-2.347H37.232a2.359,2.359,0,0,0-2.347,2.347v1.55Zm-17.7-11.321a7.43,7.43,0,0,1-10.967,0A8.318,8.318,0,0,0,3.4,53.67a2.939,2.939,0,0,0-1.054,2.073v4.549H21.052V55.743a2.94,2.94,0,0,0-1.072-2.086,8.378,8.378,0,0,0-2.8-1.639Zm58.58-5.04a7.412,7.412,0,0,1-.655,3.052,10.294,10.294,0,0,1,3.1,1.944A5.186,5.186,0,0,1,80,55.743V61.46a1.172,1.172,0,0,1-1.169,1.174H67.7a33.17,33.17,0,0,1-2.02,3.207,33.792,33.792,0,0,1-2.888,3.521,1.17,1.17,0,0,1-1.705-1.6,30.95,30.95,0,0,0,2.688-3.273q.644-.9,1.222-1.851H57.779A1.176,1.176,0,0,1,56.6,61.461V55.743a5.2,5.2,0,0,1,1.807-3.782A10.2,10.2,0,0,1,61.5,50.029a7.343,7.343,0,0,1-.66-3.052V40.241a4.7,4.7,0,0,1,4.69-4.69H66.3c-.253-.54-.527-1.072-.819-1.595a28.925,28.925,0,0,0-1.944-3.038,1.169,1.169,0,0,1,1.887-1.382,31.586,31.586,0,0,1,2.1,3.286,30,30,0,0,1,1.342,2.728H71.07a4.688,4.688,0,0,1,4.69,4.69v6.737Zm-1.975,5.045a7.435,7.435,0,0,1-10.967,0,8.329,8.329,0,0,0-2.8,1.639,2.943,2.943,0,0,0-1.063,2.082v4.549h18.7V55.743A2.929,2.929,0,0,0,76.6,53.67,8.25,8.25,0,0,0,73.786,52.022Zm-26.327,16.5a7.4,7.4,0,0,1-.655,3.052,10.306,10.306,0,0,1,3.1,1.949A6.371,6.371,0,0,1,51,74.863a28.512,28.512,0,0,0,2.742-1.342,29.892,29.892,0,0,0,3.552-2.334,1.168,1.168,0,1,1,1.417,1.856,32.138,32.138,0,0,1-3.836,2.52,30.016,30.016,0,0,1-3.18,1.541c0,.062,0,.128,0,.19v5.718a1.168,1.168,0,0,1-1.169,1.169H29.476A1.172,1.172,0,0,1,28.3,83.013V77.295c0-.062,0-.124,0-.186a32.572,32.572,0,0,1-3.251-1.541,31.411,31.411,0,0,1-3.827-2.458,1.166,1.166,0,1,1,1.4-1.865,29.762,29.762,0,0,0,3.543,2.272A29.057,29.057,0,0,0,29,74.868a6.536,6.536,0,0,1,1.081-1.329A10.17,10.17,0,0,1,33.2,71.581a7.346,7.346,0,0,1-.66-3.056V61.788a4.7,4.7,0,0,1,4.69-4.69h5.537a4.7,4.7,0,0,1,4.69,4.69v6.737ZM45.483,73.57a7.435,7.435,0,0,1-10.967,0,8.31,8.31,0,0,0-2.826,1.661,2.925,2.925,0,0,0-1.045,2.064v4.544H49.354V77.295A2.93,2.93,0,0,0,48.3,75.222,8.318,8.318,0,0,0,45.483,73.57ZM19.794,27.082A1.168,1.168,0,0,1,18.173,25.4a30.483,30.483,0,0,1,5.6-4.283,16.272,16.272,0,0,1,32.444-.08c.917.563,1.8,1.174,2.653,1.82a31.748,31.748,0,0,1,2.937,2.533,1.167,1.167,0,1,1-1.625,1.674,30.492,30.492,0,0,0-2.729-2.347c-.407-.315-.824-.611-1.24-.9-.363,4.451-2.352,7.476-4.261,10.373-1.727,2.626-3.384,5.142-3.41,8.522l0,5.417a5.678,5.678,0,0,1-5.66,5.66H37.117a5.671,5.671,0,0,1-5.661-5.66l0-5.417c-.031-3.379-1.683-5.9-3.41-8.522-1.9-2.888-3.884-5.9-4.256-10.32-.438.292-.868.6-1.289.912a27.948,27.948,0,0,0-2.711,2.3ZM33.8,46.353H46.2V43.979H33.8ZM46.152,48.7h-12.3a3.33,3.33,0,0,0,3.269,2.75h5.771a3.33,3.33,0,0,0,3.264-2.75Zm-7.282-17.4c-.19-.7-.523-1.657-.9-2.751C36.913,25.483,35.5,21.408,35.5,18.33c0-2.954,1.13-5.063,4.5-5.063s4.5,2.108,4.5,5.063c0,3.078-1.408,7.153-2.467,10.214-.381,1.1-.713,2.064-.908,2.764a1.166,1.166,0,0,1-2.254-.013ZM37.847,18.33c0,2.56,1.183,6.125,2.153,8.947.974-2.821,2.157-6.387,2.157-8.947,0-1.586-.545-2.72-2.157-2.72S37.847,16.744,37.847,18.33Zm.983,17.1a1.171,1.171,0,0,1,2.343,0v1.218a1.171,1.171,0,0,1-2.343,0Zm-5.089,6.205H46.258c.31-3.5,1.993-6.063,3.747-8.725C51.923,30,53.93,26.944,53.93,22.356a13.927,13.927,0,1,0-27.855,0c0,4.589,2.006,7.64,3.924,10.555,1.749,2.662,3.437,5.222,3.743,8.725Z" transform="translate(0 0)" fill="#707070"/>
  </g>
</svg>
