<svg xmlns="http://www.w3.org/2000/svg" width="286.238" height="109.405" viewBox="0 0 286.238 109.405">
  <g id="Group_54479" data-name="Group 54479" transform="translate(-1665.736 -29.917)">
    <g id="Group_2" data-name="Group 2" transform="translate(1853.267 29.917)">
      <path id="Path_1" data-name="Path 1" d="M198.2,123.671a13.932,13.932,0,0,1-19.62,1.293c-7.882-6.932-20.068-8.438-30.766-3.9,13.753-17.67,29.812-22.705,38.552-24.15a50.877,50.877,0,0,1,10.541,7.14A13.9,13.9,0,0,1,198.2,123.671Z" transform="translate(-102.948 -90.758)" fill="#42b39a"/>
      <path id="Path_2" data-name="Path 2" d="M198.2,123.671a13.932,13.932,0,0,1-19.62,1.293c-7.882-6.932-20.068-8.438-30.766-3.9,13.753-17.67,29.812-22.705,38.552-24.15a50.877,50.877,0,0,1,10.541,7.14A13.9,13.9,0,0,1,198.2,123.671Z" transform="translate(-102.948 -90.758)" fill="#fc8e0b"/>
      <path id="Path_3" data-name="Path 3" d="M197.09,100.07c-8.741,1.445-24.8,6.48-38.552,24.15a11.885,11.885,0,0,0-1.469.631c-4.3,2.053-13.486,7.783-15.27,20.048-7.168-19.836-3.469-35.392-.469-43.205h.041c1.192-.672,2.425-1.3,3.658-1.895C161.89,91.747,181.467,92.082,197.09,100.07Z" transform="translate(-113.667 -93.917)" fill="#42b39a"/>
      <path id="Path_4" data-name="Path 4" d="M166.506,168.741c-23.459-3.6-35.731-16.466-40.517-22.833v-.041A53.494,53.494,0,0,1,153.649,97.7c-3,7.814-6.7,23.369.469,43.205a30.725,30.725,0,0,0-.294,5.839C154.344,158.817,160.955,165.35,166.506,168.741Z" transform="translate(-125.985 -89.925)" fill="#112459"/>
      <path id="Path_5" data-name="Path 5" d="M195.846,145.785c-13.952,18.067-30.328,23.1-39.068,24.467h-.041c-18.4-8.911-29.824-26.337-30.716-47.069-.037-.676-.035-1.35-.033-2.024,4.786,6.367,17.058,19.23,40.517,22.833a32.277,32.277,0,0,0,3.449,1.8A31.611,31.611,0,0,0,195.846,145.785Z" transform="translate(-125.984 -66.998)" fill="#fc8e0b"/>
      <path id="Path_6" data-name="Path 6" d="M203.413,154.441A56.2,56.2,0,0,1,167.16,167.2a60.625,60.625,0,0,1-24.249-5.193,17.725,17.725,0,0,1-1.942-.958c8.741-1.365,25.116-6.4,39.068-24.466a23.061,23.061,0,0,0,5.569-3.479,13.9,13.9,0,0,1,17.806,21.339Z" transform="translate(-110.175 -57.794)" fill="#42b39a"/>
      <g id="Group_1" data-name="Group 1" transform="translate(36.974 49.364)">
        <circle id="Ellipse_1" data-name="Ellipse 1" cx="5.276" cy="5.276" r="5.276" fill="#112459"/>
        <circle id="Ellipse_2" data-name="Ellipse 2" cx="5.276" cy="5.276" r="5.276" transform="translate(14.997 0.044)" fill="#42b39a"/>
        <circle id="Ellipse_3" data-name="Ellipse 3" cx="5.276" cy="5.276" r="5.276" transform="translate(29.995 0.088)" fill="#fc8e0b"/>
      </g>
    </g>
    <g id="Group_3" data-name="Group 3" transform="translate(1665.736 59.686)">
      <path id="Path_7" data-name="Path 7" d="M108.736,182.882a10.138,10.138,0,0,1,.787-3.981,9.581,9.581,0,0,1,2.17-3.177,10.123,10.123,0,0,1,3.325-2.111,12.042,12.042,0,0,1,6.977-.442,9.562,9.562,0,0,1,2.2.836,8.759,8.759,0,0,1,1.683,1.159,9.293,9.293,0,0,1,1.233,1.323,10.043,10.043,0,0,1,1.757,3.6l-4.215-.012a5.178,5.178,0,0,0-1.083-1.691,6.8,6.8,0,0,0-1.669-1.173,5.789,5.789,0,0,0-2.678-.551,6.31,6.31,0,0,0-2.45.454,5.785,5.785,0,0,0-1.934,1.286,6,6,0,0,0-1.284,1.967,6.711,6.711,0,0,0-.471,2.528,7.294,7.294,0,0,0,.43,2.6,5.529,5.529,0,0,0,1.231,1.977,5.378,5.378,0,0,0,1.928,1.256,6.928,6.928,0,0,0,2.513.442,5.627,5.627,0,0,0,2.762-.59,6.407,6.407,0,0,0,1.7-1.3,5.88,5.88,0,0,0,1.122-1.9l4.215.012a11.348,11.348,0,0,1-1.887,3.8,11.941,11.941,0,0,1-1.284,1.4,8.034,8.034,0,0,1-1.716,1.219,9.887,9.887,0,0,1-2.205.851,10.486,10.486,0,0,1-2.721.319,11.213,11.213,0,0,1-4.213-.787,10.106,10.106,0,0,1-3.313-2.131,9.544,9.544,0,0,1-2.152-3.19A10.128,10.128,0,0,1,108.736,182.882Z" transform="translate(-108.736 -142.034)" fill="#040505"/>
      <path id="Path_8" data-name="Path 8" d="M119.32,182.788a7.757,7.757,0,0,1,.58-2.976,7.332,7.332,0,0,1,4.024-4.034,7.684,7.684,0,0,1,3.035-.584,7.574,7.574,0,0,1,3.017.6,7.454,7.454,0,0,1,2.4,1.63,7.635,7.635,0,0,1-2.444,12.417,8.046,8.046,0,0,1-6.052-.018,7.321,7.321,0,0,1-4-4.061A7.76,7.76,0,0,1,119.32,182.788Zm3.944.012a5.259,5.259,0,0,0,.279,1.784,4.108,4.108,0,0,0,.785,1.367,3.71,3.71,0,0,0,1.167.888,3.361,3.361,0,0,0,2.857.008,3.7,3.7,0,0,0,1.171-.882,4.128,4.128,0,0,0,.793-1.361,5.733,5.733,0,0,0,.01-3.568,4.088,4.088,0,0,0-.785-1.367,3.657,3.657,0,0,0-1.167-.89,3.274,3.274,0,0,0-1.426-.323,3.321,3.321,0,0,0-1.43.314,3.676,3.676,0,0,0-1.171.884,4.087,4.087,0,0,0-.793,1.361A5.288,5.288,0,0,0,123.264,182.8Z" transform="translate(-97.568 -139.562)" fill="#040505"/>
      <path id="Path_9" data-name="Path 9" d="M127.815,175.406l3.806.01-.025,8.278a3.53,3.53,0,0,0,.754,2.458,2.717,2.717,0,0,0,2.094.834,2.9,2.9,0,0,0,1.252-.282,3.306,3.306,0,0,0,1.048-.783,3.592,3.592,0,0,0,.711-1.21,4.576,4.576,0,0,0,.263-1.57l.023-7.707,3.808.012-.043,14.415-3.806-.01,0-1.9-.136,0a3.863,3.863,0,0,1-1.009,1.167,6.038,6.038,0,0,1-1.363.785,4.987,4.987,0,0,1-1.987.347,5.212,5.212,0,0,1-3.993-1.552,6.4,6.4,0,0,1-1.428-4.534Z" transform="translate(-88.633 -139.338)" fill="#040505"/>
      <path id="Path_10" data-name="Path 10" d="M135.962,175.628l3.806.01,0,2.041.134,0a3.221,3.221,0,0,1,.738-1.141,5.7,5.7,0,0,1,1.093-.867,3.12,3.12,0,0,1,1.714-.432l1.632.006-.012,3.673-2.041-.006a3.161,3.161,0,0,0-2.409.89,3.387,3.387,0,0,0-.863,2.431l-.023,7.82-3.808-.01Z" transform="translate(-80.054 -139.511)" fill="#040505"/>
      <path id="Path_11" data-name="Path 11" d="M144.766,185.4a3.066,3.066,0,0,0,.6.993,3.039,3.039,0,0,0,2.39.966,3.116,3.116,0,0,0,1.825-.378,1.254,1.254,0,0,0,.491-1.038.915.915,0,0,0-.637-.857,9.191,9.191,0,0,0-1.589-.518l-2.039-.489a8.184,8.184,0,0,1-2.063-.775,4.8,4.8,0,0,1-1.589-1.371,3.721,3.721,0,0,1-.633-2.281,3.775,3.775,0,0,1,.386-1.65,4.19,4.19,0,0,1,1.12-1.408,5.693,5.693,0,0,1,1.823-.976,7.887,7.887,0,0,1,2.532-.364,8.984,8.984,0,0,1,1.959.2,6.719,6.719,0,0,1,1.535.54,5.7,5.7,0,0,1,1.153.764,5.762,5.762,0,0,1,.814.851,5.569,5.569,0,0,1,1.052,2.316l-3.806-.012a2.215,2.215,0,0,0-.487-.765,3.145,3.145,0,0,0-.828-.52,3.381,3.381,0,0,0-1.4-.251,2.336,2.336,0,0,0-1.467.354,1,1,0,0,0-.438.781.915.915,0,0,0,.637.857,9.023,9.023,0,0,0,1.589.516q.949.231,2.063.491a8.281,8.281,0,0,1,2.039.775,4.821,4.821,0,0,1,1.589,1.371,3.723,3.723,0,0,1,.633,2.279,3.974,3.974,0,0,1-.415,1.753,4.478,4.478,0,0,1-1.2,1.49,6.09,6.09,0,0,1-1.961,1.048,8.329,8.329,0,0,1-2.7.391,8.811,8.811,0,0,1-2.01-.216,6.585,6.585,0,0,1-2.811-1.406,5.624,5.624,0,0,1-.882-.933,6.818,6.818,0,0,1-1.217-2.544Z" transform="translate(-74.881 -139.498)" fill="#040505"/>
      <path id="Path_12" data-name="Path 12" d="M147.906,182.872a7.834,7.834,0,0,1,.58-2.976,7.479,7.479,0,0,1,1.587-2.419,7.634,7.634,0,0,1,8.313-1.605,7.076,7.076,0,0,1,2.322,1.628,7.314,7.314,0,0,1,1.5,2.407,8.034,8.034,0,0,1,.52,2.931l0,.841-10.88-.033a4.882,4.882,0,0,0,.417,1.379,4.305,4.305,0,0,0,.787,1.153,3.642,3.642,0,0,0,1.071.779,2.834,2.834,0,0,0,1.25.29,3.205,3.205,0,0,0,1.511-.306,4.312,4.312,0,0,0,.968-.666,3.3,3.3,0,0,0,.658-.978l4.079.012a7.644,7.644,0,0,1-1.369,2.608,7.907,7.907,0,0,1-.956.954,6.957,6.957,0,0,1-1.252.839,6.792,6.792,0,0,1-1.619.59,8.847,8.847,0,0,1-2.028.212,7.4,7.4,0,0,1-5.325-2.23,7.493,7.493,0,0,1-1.57-2.431A7.792,7.792,0,0,1,147.906,182.872Zm10.748-1.521a3.524,3.524,0,0,0-.376-1.013,3.244,3.244,0,0,0-.693-.851,3.493,3.493,0,0,0-.978-.6,3.428,3.428,0,0,0-3.428.569,3.934,3.934,0,0,0-1.19,1.872Z" transform="translate(-67.406 -139.473)" fill="#040505"/>
      <path id="Path_13" data-name="Path 13" d="M158.3,176.991a2.136,2.136,0,0,0,1.552-.606,1.941,1.941,0,0,0,.008-2.857,2.267,2.267,0,0,0-3.1-.008,1.938,1.938,0,0,0-.008,2.855A2.125,2.125,0,0,0,158.3,176.991Z" transform="translate(-58.732 -141.97)" fill="#42b39a"/>
      <rect id="Rectangle_1" data-name="Rectangle 1" width="14.416" height="3.807" transform="translate(97.616 50.656) rotate(-89.831)" fill="#040505"/>
      <path id="Path_14" data-name="Path 14" d="M159.586,175.7l3.806.012-.006,1.905h.138a4.053,4.053,0,0,1,1.009-1.141,6.468,6.468,0,0,1,1.35-.8,4.773,4.773,0,0,1,2-.362,5.211,5.211,0,0,1,3.993,1.55A6.407,6.407,0,0,1,173.3,181.4l-.025,8.753-3.808-.012.025-8.278a3.5,3.5,0,0,0-.754-2.454,2.7,2.7,0,0,0-2.09-.834,2.865,2.865,0,0,0-1.254.282,3.338,3.338,0,0,0-1.05.781,3.641,3.641,0,0,0-.709,1.21,4.514,4.514,0,0,0-.263,1.568l-.025,7.709-3.806-.012Z" transform="translate(-55.127 -139.436)" fill="#040505"/>
      <path id="Path_15" data-name="Path 15" d="M167.111,176.777l1.769,0,.006-2.448,3.808.01-.008,2.45,3.917.01-.008,3.266-3.919-.012-.023,7.888,4.082.01-.008,3.266-7.89-.023.033-11.151-1.77-.006Z" transform="translate(-47.152 -140.47)" fill="#040505"/>
      <path id="Path_16" data-name="Path 16" d="M172.456,182.944a7.842,7.842,0,0,1,.58-2.976,7.5,7.5,0,0,1,1.587-2.419,7.626,7.626,0,0,1,8.313-1.6,7.04,7.04,0,0,1,2.322,1.626,7.348,7.348,0,0,1,1.5,2.407,8.038,8.038,0,0,1,.52,2.933l0,.838-10.88-.033a4.951,4.951,0,0,0,.417,1.379,4.351,4.351,0,0,0,.787,1.153,3.6,3.6,0,0,0,1.071.781,2.86,2.86,0,0,0,1.25.288,3.233,3.233,0,0,0,1.511-.3,4.448,4.448,0,0,0,.97-.668,3.394,3.394,0,0,0,.656-.976l4.079.012a7.725,7.725,0,0,1-1.369,2.606,7.9,7.9,0,0,1-.956.954,6.849,6.849,0,0,1-1.252.839,6.779,6.779,0,0,1-1.621.59,8.83,8.83,0,0,1-2.026.212,7.4,7.4,0,0,1-5.325-2.23,7.484,7.484,0,0,1-1.57-2.429A7.8,7.8,0,0,1,172.456,182.944Zm10.748-1.519a3.4,3.4,0,0,0-.378-1.015,3.231,3.231,0,0,0-.688-.851,3.534,3.534,0,0,0-.98-.6,3.443,3.443,0,0,0-3.428.569,3.959,3.959,0,0,0-1.19,1.872Z" transform="translate(-41.502 -139.397)" fill="#040505"/>
      <path id="Path_17" data-name="Path 17" d="M180.838,173.312l3.808.01L184.6,189.1l3.128.01-.01,3.264-6.934-.018Z" transform="translate(-32.716 -141.548)" fill="#040505"/>
      <path id="Path_18" data-name="Path 18" d="M185.075,173.324l3.808.012-.047,15.775,3.128.008-.01,3.266-6.934-.021Z" transform="translate(-28.246 -141.535)" fill="#040505"/>
      <rect id="Rectangle_2" data-name="Rectangle 2" width="14.416" height="3.807" transform="translate(165.476 50.855) rotate(-89.831)" fill="#040505"/>
      <path id="Path_19" data-name="Path 19" d="M191.317,177.088a2.131,2.131,0,0,0,1.55-.606,1.943,1.943,0,0,0,.01-2.857,2.267,2.267,0,0,0-3.1-.008,1.938,1.938,0,0,0-.008,2.855A2.121,2.121,0,0,0,191.317,177.088Z" transform="translate(-23.891 -141.867)" fill="#fc8e0b"/>
      <path id="Path_20" data-name="Path 20" d="M115.748,167.746a1.606,1.606,0,0,0-1.2.508,1.794,1.794,0,0,0-.008,2.458,1.645,1.645,0,0,0,1.2.5,1.6,1.6,0,0,0,1.2-.508,1.764,1.764,0,0,0,.008-2.46A1.607,1.607,0,0,0,115.748,167.746Z" transform="translate(-103.122 -147.421)" fill="#fc8e0b"/>
      <path id="Path_21" data-name="Path 21" d="M113.683,167.739a1.616,1.616,0,0,0-1.2.51,1.791,1.791,0,0,0-.006,2.458,1.7,1.7,0,0,0,2.421-.006,1.664,1.664,0,0,0,.5-1.221,1.7,1.7,0,0,0-.5-1.237A1.643,1.643,0,0,0,113.683,167.739Z" transform="translate(-105.3 -147.428)" fill="#42b39a"/>
      <path id="Path_22" data-name="Path 22" d="M136.941,161.786a1.622,1.622,0,0,0,1.2-.508,1.8,1.8,0,0,0,.008-2.46,1.6,1.6,0,0,0-1.2-.516,1.623,1.623,0,0,0-1.2.51,1.728,1.728,0,0,0-.489,1.233,1.677,1.677,0,0,0,.483,1.225A1.588,1.588,0,0,0,136.941,161.786Z" transform="translate(-80.747 -157.384)" fill="#42b39a"/>
      <path id="Path_23" data-name="Path 23" d="M134.878,161.781a1.649,1.649,0,0,0,1.223-.508,1.8,1.8,0,0,0,.008-2.46,1.652,1.652,0,0,0-1.221-.516,1.616,1.616,0,0,0-1.2.51,1.73,1.73,0,0,0-.491,1.233,1.693,1.693,0,0,0,.483,1.225A1.592,1.592,0,0,0,134.878,161.781Z" transform="translate(-82.926 -157.391)" fill="#112459"/>
      <path id="Path_24" data-name="Path 24" d="M144.008,161.721a1.759,1.759,0,1,0-1.241-3.011,1.752,1.752,0,0,0,1.241,3.011Z" transform="translate(-73.373 -157.49)" fill="#fc8e0b"/>
      <path id="Path_25" data-name="Path 25" d="M225.191,170.3a30.261,30.261,0,0,0-.8-7.08l-3.3.44a30.923,30.923,0,0,1,.728,6.854,23.65,23.65,0,0,1-.2,3.07l-.662,0a4.264,4.264,0,0,1-2.394-.469,2.4,2.4,0,0,1-.619-1.975l.018-6.416-3.245-.008-.016,5.779q-.009,3.271-2.057,3.264a1.431,1.431,0,0,1-1.445-.791,6.733,6.733,0,0,1-.3-2.509l.014-4.729-3.37-.01-.014,4.655a4.286,4.286,0,0,1-.543,2.52,2.117,2.117,0,0,1-1.776.643l-.986,0-.286,0-6.953-.021H196.7l-6.95-.021h-.29l-6.85-.021-.386,0-2.123-.006.027-9.361-3.368-.01-.029,9.361-3.294-.008-.288,0-6.852-.021h-.384l-1.885-.006.027-9.361-3.37-.01-.027,9.361-3.3-.008-.286,0-6.854-.021h-.386l-2.17-.006L147.708,158l-3.37-.01-.045,15.364-2.881-.008-.29,0-6.864-.018-.374,0-1.774-.006.012-4.042a5.873,5.873,0,0,0-1.247-4.135q-1.418-1.514-4.638-1.525a25.557,25.557,0,0,0-5.132.473l-.027,9.2-1.747-.006q-3.5-.009-4.951-1.313a5.064,5.064,0,0,1-1.375-4,10.013,10.013,0,0,1,.888-4.215l-3.609.575a11.658,11.658,0,0,0-.674,4.016,6.98,6.98,0,0,0,2.067,5.537q2.29,2.041,7.3,2.055l5.341.016.029-9.536a9.442,9.442,0,0,1,1.685-.144,2.752,2.752,0,0,1,2.207.754,4.11,4.11,0,0,1,.617,2.6l-.018,6.34,5.041.014.374,0,6.864.021h.29l8.422.025.388,0,6.852.021h.288l8.549.025.386,0,6.85.021h.29l8.786.027h.386l6.852.021h.288l6.95.021.288,0,6.953.021h.286l.962,0q2.62.006,3.412-1.776.657,1.985,3.389,2,2.947.006,3.864-1.95a2.9,2.9,0,0,0,1.632,1.416,10.155,10.155,0,0,0,3.093.36l4.219.012A42.75,42.75,0,0,0,225.191,170.3Z" transform="translate(-107.814 -157.715)" fill="#040505"/>
      <path id="Path_26" data-name="Path 26" d="M170.668,173.339a4.308,4.308,0,0,1-.744,2.82,2.553,2.553,0,0,1-2.037.742,7.615,7.615,0,0,1-2.072-.3l-.257,2.682a8.995,8.995,0,0,0,2.143.255q6.316.018,6.336-6.371l.035-12.119-3.37-.01Z" transform="translate(-48.78 -154.504)" fill="#040505"/>
      <path id="Path_27" data-name="Path 27" d="M211.128,157.856l-10.152,6.311-.006,2.47q6.036,1.43,6.244,7.234l-7.3-.023h-.29l-6.95-.021-.288,0-6.866-.018-.372,0-2.125-.006.027-8.8a15.014,15.014,0,0,0-5.339-.9,6.716,6.716,0,0,0-5.16,1.932,6.317,6.317,0,0,0-1.636,4.462q-.015,5.928,6.835,5.95l2,.006v.386q-.009,3.394-4.441,3.383a18.543,18.543,0,0,1-3.979-.45l-.222,2.758a23.183,23.183,0,0,0,3.894.349q4.069.009,6.147-1.856a5.775,5.775,0,0,0,1.872-4.511v-.051l2.123.006.374,0,6.866.021h.286l6.95.021.29,0,10.594.031,0-1.71q.022-7.328-5.635-9.889l6.25-3.738ZM179.752,173.79l-1.634,0q-3.844-.012-3.833-3.594a3.663,3.663,0,0,1,.818-2.468,2.768,2.768,0,0,1,2.236-.966,5.65,5.65,0,0,1,2.433.469Z" transform="translate(-43.13 -157.856)" fill="#040505"/>
    </g>
  </g>
</svg>
