<svg xmlns="http://www.w3.org/2000/svg" width="23.353" height="25.997" viewBox="0 0 23.353 25.997">
  <g id="robot" transform="translate(-26.037 0)">
    <path id="Path_46047" data-name="Path 46047" d="M48.615,17.6H48.33V15.349a.381.381,0,0,0-.278-.367q-.61-.17-1.222-.3V11.374A2.6,2.6,0,0,0,44.236,8.78h-.994V6.866h.438v.15a.381.381,0,1,0,.762,0V5.955a.381.381,0,1,0-.762,0V6.1h-.438V5.529a5.529,5.529,0,0,0-8.856-4.416.381.381,0,0,0,.459.608,4.767,4.767,0,0,1,7.635,3.808V8.78H32.946V5.529a4.731,4.731,0,0,1,.91-2.8.381.381,0,0,0-.616-.448,5.488,5.488,0,0,0-1.056,3.25V6.1h-.438v-.15a.381.381,0,0,0-.762,0V7.016a.381.381,0,1,0,.762,0v-.15h.438V8.78h-.994A2.6,2.6,0,0,0,28.6,11.374v3.308q-.612.13-1.222.3a.381.381,0,0,0-.278.367V17.6h-.285a.775.775,0,0,0-.775.775V19.6a.381.381,0,0,0,.762,0V18.377a.013.013,0,0,1,.013-.013H28.15a.013.013,0,0,1,.013.013v3.5a.013.013,0,0,1-.013.013H26.812a.013.013,0,0,1-.013-.013v-.751a.381.381,0,0,0-.762,0v.751a.775.775,0,0,0,.775.775H27.1v2.968a.381.381,0,0,0,.485.366,18.113,18.113,0,0,1,10.028,0,.407.407,0,0,0,.11.014.36.36,0,0,0,.1-.014,18.113,18.113,0,0,1,10.028,0,.381.381,0,0,0,.485-.366V22.648h.285a.775.775,0,0,0,.775-.775v-3.5a.775.775,0,0,0-.775-.774ZM29.359,11.374a1.834,1.834,0,0,1,1.832-1.832H44.236a1.834,1.834,0,0,1,1.832,1.832v3.162a19.156,19.156,0,0,0-2.408-.259v-.69a.97.97,0,0,0-.969-.969h-1.3a.381.381,0,1,0,0,.762h1.3a.208.208,0,0,1,.207.208v.671a19.346,19.346,0,0,0-5.185.7,19.347,19.347,0,0,0-5.185-.7v-.671a.208.208,0,0,1,.207-.208h7.128a.381.381,0,1,0,0-.762H32.736a.97.97,0,0,0-.969.969v.69a19.157,19.157,0,0,0-2.408.259Zm-1.5,13.745V22.648h.292a.775.775,0,0,0,.775-.775v-3.5a.775.775,0,0,0-.775-.775h-.292V15.64a18.389,18.389,0,0,1,9.475,0v9.478a18.816,18.816,0,0,0-9.475,0Zm19.711,0a18.816,18.816,0,0,0-9.475,0V15.64a18.389,18.389,0,0,1,9.475,0V17.6h-.292a.775.775,0,0,0-.775.775v3.5a.775.775,0,0,0,.775.775h.292Zm1.059-3.245a.013.013,0,0,1-.013.013H47.276a.013.013,0,0,1-.013-.013v-3.5a.013.013,0,0,1,.013-.013h1.339a.013.013,0,0,1,.013.013Z" transform="translate(0 0)" fill="#707070"/>
    <path id="Path_46048" data-name="Path 46048" d="M297.328,331.807h-5.917a.381.381,0,0,0-.381.381v2.051a.381.381,0,0,0,.381.381h5.917a.381.381,0,0,0,.381-.381v-2.051A.381.381,0,0,0,297.328,331.807Zm-.381,2.051h-5.156v-1.289h5.156Z" transform="translate(-251.538 -314.96)" fill="#707070"/>
    <path id="Path_46049" data-name="Path 46049" d="M330.971,402.814a.381.381,0,1,0,0-.762h-2.115a.381.381,0,0,0,0,.762Z" transform="translate(-287.083 -381.638)" fill="#707070"/>
    <path id="Path_46050" data-name="Path 46050" d="M317.495,430.9h-3.638a.381.381,0,0,0,0,.762h3.638a.381.381,0,0,0,0-.762Z" transform="translate(-272.844 -409.024)" fill="#707070"/>
    <path id="Path_46051" data-name="Path 46051" d="M125.553,214.095a.381.381,0,0,0,0-.762h-.685a.381.381,0,0,0,0,.762Z" transform="translate(-93.451 -202.501)" fill="#707070"/>
    <path id="Path_46052" data-name="Path 46052" d="M167.491,214.095h3.594a.381.381,0,0,0,0-.762h-3.594a.381.381,0,0,0,0,.762Z" transform="translate(-133.91 -202.501)" fill="#707070"/>
    <path id="Path_46053" data-name="Path 46053" d="M182.144,79.369a10.592,10.592,0,0,0,7.02,0,.381.381,0,0,0,.257-.36V76a.381.381,0,0,0-.381-.381h-6.773a.381.381,0,0,0-.381.381v3A.381.381,0,0,0,182.144,79.369Zm.5-2.984h6.012v2.348a9.813,9.813,0,0,1-6.012,0Z" transform="translate(-147.937 -71.783)" fill="#707070"/>
    <path id="Path_46054" data-name="Path 46054" d="M210.414,104.819a.381.381,0,0,0-.381.381v.581a.381.381,0,0,0,.762,0V105.2A.381.381,0,0,0,210.414,104.819Z" transform="translate(-174.654 -99.497)" fill="#707070"/>
    <path id="Path_46055" data-name="Path 46055" d="M287.348,106.161a.381.381,0,0,0,.381-.381V105.2a.381.381,0,1,0-.762,0v.581A.381.381,0,0,0,287.348,106.161Z" transform="translate(-247.681 -99.497)" fill="#707070"/>
  </g>
</svg>
