<svg id="shopping-cart" xmlns="http://www.w3.org/2000/svg" width="27.435" height="25.943" viewBox="0 0 27.435 25.943">
  <path id="shopping-cart-2" data-name="shopping-cart" d="M26.307,26.062H4.857L4.538,22.4a1.141,1.141,0,0,0-1.122-1.059H1.127a1.163,1.163,0,0,0,0,2.325H2.386c.688,7.909-1.09-12.533,1.3,14.9A4.512,4.512,0,0,0,5.3,41.589a3.537,3.537,0,0,0,2.69,5.693,3.514,3.514,0,0,0,3.212-4.724h6.167a3.515,3.515,0,0,0,3.212,4.724,3.526,3.526,0,0,0,0-7.049H8a2.092,2.092,0,0,1-1.924-1.309l18.006-1.092a1.137,1.137,0,0,0,1.027-.878L27.4,27.506a1.155,1.155,0,0,0-1.093-1.444ZM7.994,44.956a1.2,1.2,0,1,1,1.162-1.2A1.183,1.183,0,0,1,7.994,44.956Zm12.59,0a1.2,1.2,0,1,1,1.162-1.2A1.183,1.183,0,0,1,20.584,44.956Zm2.541-9.4L5.775,36.613l-.716-8.227H24.864Z" transform="translate(0 -21.338)" fill="#707070"/>
</svg>
