<svg id="Stockholm_icons_Home_Key" data-name="Stockholm icons / Home / Key" xmlns="http://www.w3.org/2000/svg" width="35.099" height="37.808" viewBox="0 0 35.099 37.808">
  <g id="Group" transform="translate(4.387 4.726)">
    <path id="Path" d="M5.85,12.6A6.088,6.088,0,0,1,0,6.3,6.088,6.088,0,0,1,5.85,0,6.088,6.088,0,0,1,11.7,6.3,6.088,6.088,0,0,1,5.85,12.6Z" transform="translate(7.312)" fill="#a1afc3"/>
    <path id="Path-2" data-name="Path" d="M0,11.341C.568,3.823,6.233,0,13.138,0c7,0,12.755,3.612,13.183,11.343a1.061,1.061,0,0,1-1.1,1.26H1.064C.7,12.6-.03,11.751,0,11.341Z" transform="translate(0 15.753)" fill="#a1afc3"/>
  </g>
</svg>
